<svg width="166" height="168" viewBox="0 0 166 168" xmlns="http://www.w3.org/2000/svg">
<path d="M63.8153 32.9628C64.9153 32.9628 65.9153 32.0628 65.9153 30.8628C65.9153 30.6628 65.9153 30.5628 65.9153 30.3628C65.9153 29.2628 65.0153 28.2628 63.8153 28.2628C62.6153 28.2628 61.7153 29.1628 61.7153 30.3628C61.7153 30.5628 61.7153 30.6628 61.7153 30.8628C61.7153 32.0628 62.7153 32.9628 63.8153 32.9628Z" />
<path d="M99.4153 33.4628C102.015 33.4628 102.015 29.3628 99.4153 29.3628C96.8153 29.3628 96.8153 33.4628 99.4153 33.4628Z" />
<path d="M164.615 137.263C164.615 137.163 164.515 137.163 164.515 137.063C165.115 126.263 164.815 115.463 163.515 104.763C162.315 94.8628 160.715 84.6628 156.015 75.7628C149.015 62.4628 133.215 55.4628 118.615 57.2628C120.215 55.9628 121.715 54.3628 122.915 52.5628C123.315 51.9628 123.615 51.2628 123.915 50.6628C124.015 50.5628 124.015 50.4628 124.015 50.3628L124.115 50.2628C130.715 34.4628 115.915 23.7628 102.315 20.0628C103.415 17.0628 104.615 14.0628 105.715 11.0628C108.315 10.9628 110.815 8.76281 110.915 5.56281C111.015 -0.737188 103.415 -1.13719 99.7152 1.96281C96.2152 4.86281 97.5152 10.5628 101.115 11.8628C100.215 14.3628 99.3152 16.7628 98.3152 19.2628C96.1152 18.9628 94.0152 18.7628 91.8152 18.6628C84.9152 18.3628 78.0152 17.8628 71.0152 18.1628C67.5152 18.2628 64.1152 18.6628 60.7152 19.3628C59.8152 16.9628 59.0152 14.5628 58.3152 12.0628C60.8152 11.4628 63.0152 10.5628 63.7152 7.66281C64.4152 4.66281 61.7152 0.962813 58.9152 0.262813C52.0152 -1.53719 44.2152 6.26281 48.9152 12.8628C49.5152 13.6628 50.3152 14.0628 51.2152 13.7628C52.3152 13.5628 53.3152 13.2628 54.3152 12.8628C55.0152 15.3628 55.9152 17.8628 56.8152 20.3628C51.7152 21.9628 47.0152 24.6628 43.2152 28.6628C37.5152 34.6628 35.4152 44.2628 38.9152 51.8628C39.8152 53.8628 41.1152 55.5628 42.5152 56.9628C27.4152 60.2628 15.2152 70.7628 9.21521 85.0628C5.61521 93.6628 3.81518 103.163 2.11518 112.263C0.315178 122.063 -0.584834 131.963 0.415166 141.963C0.415166 142.263 0.515178 142.463 0.615178 142.763C0.215178 143.163 -0.0847855 143.863 0.215215 144.663C0.215215 144.963 0.315166 145.263 0.415166 145.563C1.01517 148.163 0.215166 150.963 1.41517 153.363C2.51517 155.463 4.5152 157.263 7.0152 156.963C9.6152 156.663 11.0152 153.963 12.1152 151.963C12.7152 150.763 13.2152 149.563 13.5152 148.363C17.7152 150.563 24.7152 150.463 27.9152 150.163C28.9152 150.063 30.0152 149.263 30.0152 148.063C29.8152 145.763 29.0152 143.863 27.8152 142.263C30.1152 142.063 32.3152 141.563 34.5152 140.763C38.6152 139.263 37.9152 136.263 35.7152 133.163C35.2152 132.463 34.6152 131.863 34.0152 131.363C34.2152 130.663 34.1152 129.863 33.6152 129.263C31.3152 119.063 29.9152 108.663 29.6152 98.1628C29.4152 89.5628 32.7152 82.6628 37.9152 76.6628C36.6152 82.0628 35.7152 87.5628 35.0152 93.0628C34.0152 102.263 33.1152 112.563 35.8152 121.463C38.0152 128.863 43.2152 133.663 49.6152 136.763C49.6152 136.763 49.6152 136.763 49.6152 136.863C49.1152 141.863 49.1152 146.863 51.6152 150.863C44.0152 152.163 37.0152 157.863 39.9152 166.463C40.2152 167.363 40.9152 167.963 41.9152 167.963C52.4152 167.663 62.8152 166.363 73.1152 163.963C74.5152 163.663 74.9152 162.063 74.3152 160.963C73.6152 159.563 69.0152 151.563 70.2152 150.363C72.5152 147.763 74.6152 145.163 76.3152 142.163C80.4152 142.263 84.2152 142.163 87.7152 142.063C88.4152 142.063 89.2152 141.963 89.9152 141.963C91.4152 144.563 92.9152 147.063 94.4152 149.663C92.0152 152.663 90.0152 155.863 88.2152 159.263C87.6152 160.363 88.1152 161.963 89.4152 162.263C100.915 164.563 112.615 165.363 124.315 164.663C125.415 164.563 126.315 163.763 126.415 162.563C126.615 157.763 124.615 153.463 121.015 150.363C117.515 147.263 112.915 146.763 108.515 147.063C109.915 143.563 110.415 139.763 109.915 135.963C111.615 134.963 113.315 133.763 114.815 132.463C120.715 127.463 123.815 119.963 125.215 112.563C127.615 99.3628 125.315 85.3628 121.415 72.4628C134.115 72.8628 140.715 86.2628 141.015 97.8628C141.415 110.563 136.415 122.863 134.415 135.363C134.315 135.463 134.115 135.563 134.015 135.663C132.515 136.863 132.115 138.763 131.515 140.463C130.515 143.263 129.515 146.163 128.415 148.963C128.015 150.163 129.115 151.663 130.415 151.563C135.715 151.063 140.515 149.163 144.515 145.963C145.815 148.063 147.215 150.163 148.515 152.263C149.215 153.263 150.815 153.763 151.715 152.663C153.515 150.663 154.815 148.363 155.715 145.963C156.815 148.063 158.415 149.963 160.215 151.563C161.215 152.463 162.715 152.363 163.415 151.163C166.015 146.663 166.415 141.763 164.615 137.263ZM58.5152 4.76281C57.9152 4.56281 57.3152 4.56281 56.8152 4.76281C56.1152 4.46281 55.5152 4.26281 54.8152 4.16281C55.2152 3.96281 55.7152 3.86281 56.1152 3.76281C57.2152 3.66281 58.0152 4.16281 58.5152 4.76281ZM47.7152 29.7628C54.7152 23.1628 65.1152 22.1628 74.2152 22.0628C82.7152 21.9628 92.0152 21.8628 100.315 23.6628C112.115 26.2628 125.815 34.9628 120.415 48.6628C116.915 55.7628 109.315 58.3628 102.015 59.7628C95.9152 60.9628 89.5152 61.3628 83.2152 61.2628C83.2152 61.1628 83.2152 61.0628 83.2152 60.9628C83.3152 57.6628 83.0152 54.4628 82.4152 51.2628C85.2152 50.6628 87.8152 49.0628 88.5152 46.3628C88.9152 44.8628 88.0152 42.5628 86.2152 42.5628C82.6152 42.5628 79.1152 42.5628 75.5152 42.5628C74.4152 42.5628 73.8152 43.2628 73.6152 44.0628C72.1152 45.9628 74.7152 49.8628 77.1152 50.8628C77.5152 50.9628 77.8152 51.1628 78.2152 51.1628C78.9152 54.3628 79.2152 57.5628 79.1152 60.8628C79.1152 60.9628 79.1152 60.9628 79.1152 61.0628C76.5152 60.9628 73.9152 60.8628 71.4152 60.6628C66.4152 60.2628 61.4152 59.5628 56.4152 58.6628C51.6152 57.7628 46.9152 56.4628 43.8152 52.3628C38.5152 45.2628 41.7152 35.3628 47.7152 29.7628ZM6.61518 152.763C5.31518 153.763 4.81519 149.063 4.81519 148.563C4.81519 147.363 4.81518 146.263 4.61518 145.063C6.21518 143.763 8.31519 143.363 10.3152 143.863C10.0152 147.063 9.01518 150.963 6.61518 152.763ZM15.1152 144.263C18.4152 140.863 24.0152 141.763 25.6152 146.063C22.2152 146.063 16.9152 145.863 15.1152 144.263ZM25.2152 138.263C25.8152 136.763 26.6152 135.363 28.0152 134.463C30.3152 132.863 32.5152 134.863 33.4152 137.063C32.2152 137.563 29.8152 137.863 29.0152 137.963C27.8152 138.163 26.5152 138.263 25.2152 138.263ZM25.7152 93.7628C24.5152 105.463 26.9152 118.263 29.6152 129.763C28.6152 129.763 27.7152 129.963 26.7152 130.463C23.6152 132.063 22.1152 134.863 20.9152 137.963C18.2152 137.563 15.2152 138.363 12.9152 140.463C10.1152 139.263 7.01519 139.263 4.31519 140.463C2.71519 123.563 6.31519 105.063 11.8152 89.1628C16.7152 74.9628 28.2152 64.4628 42.6152 60.9628C41.7152 63.4628 40.9152 65.8628 40.1152 68.3628C32.6152 75.4628 26.8152 83.3628 25.7152 93.7628ZM68.3152 146.363C67.6152 147.263 65.8152 148.563 66.0152 149.963C66.4152 153.563 68.0152 157.163 69.6152 160.563C61.0152 162.363 52.4152 163.463 43.6152 163.863C42.5152 157.163 50.5152 154.363 56.2152 154.763C58.4152 154.863 58.8152 152.063 57.2152 150.963C53.2152 148.063 53.2152 143.063 53.6152 138.563C59.2152 140.563 65.5152 141.563 71.6152 142.063C70.6152 143.463 69.5152 144.963 68.3152 146.363ZM103.915 147.363C101.515 147.863 101.515 151.763 104.015 151.463C108.315 150.963 112.715 150.363 116.815 152.263C120.015 153.763 121.915 157.163 122.315 160.563C112.515 161.063 102.815 160.363 93.2152 158.663C94.7152 155.963 96.4152 153.463 98.4152 151.063C99.0152 150.363 99.2152 149.463 98.7152 148.563C97.3152 146.163 95.8152 143.663 94.4152 141.263C98.4152 140.663 102.415 139.463 106.015 137.863C106.115 141.263 105.415 144.363 103.915 147.363ZM117.115 123.363C112.215 131.763 102.815 135.763 93.6152 137.363C83.8152 138.963 72.8152 138.163 63.1152 136.563C52.9152 134.863 42.8152 129.963 39.6152 119.463C37.1152 111.263 38.4152 101.363 39.3152 93.0628C40.4152 81.8628 43.3152 70.8628 47.4152 60.3628C52.3152 62.7628 58.2152 63.4628 63.7152 64.1628C76.1152 65.7628 88.6152 65.8628 100.915 64.1628C105.115 63.5628 109.415 62.5628 113.215 60.7628C114.515 64.0628 115.715 67.3628 116.715 70.7628C116.715 71.1628 116.815 71.5628 117.015 71.8628C120.015 81.5628 121.915 91.6628 122.015 101.863C122.115 109.163 120.815 116.863 117.115 123.363ZM144.415 90.0628C142.315 78.4628 132.415 67.7628 120.215 68.1628C119.615 66.3628 119.015 64.6628 118.415 62.8628C118.215 62.3628 118.015 61.9628 117.915 61.4628C132.615 58.9628 147.415 66.8628 153.815 80.3628C158.015 89.1628 159.015 99.8628 160.015 109.463C160.915 118.263 161.015 127.163 160.515 135.963C158.915 135.463 157.015 135.363 155.615 136.063C155.115 135.963 154.615 135.963 154.215 136.163C154.015 136.063 153.715 135.963 153.515 135.963C150.715 135.763 147.315 136.363 145.015 138.063C143.515 137.163 141.115 135.763 138.715 135.063C141.015 119.963 147.215 105.563 144.415 90.0628ZM135.615 141.363C135.915 140.463 136.015 139.663 136.415 139.363C136.615 139.363 136.815 139.263 137.015 139.163C137.215 139.163 137.515 139.163 137.815 139.263C139.515 139.763 141.115 140.563 142.715 141.463C142.715 141.663 142.715 141.763 142.815 141.963C140.115 144.263 137.115 145.863 133.615 146.763C134.315 144.963 134.915 143.163 135.615 141.363ZM147.815 143.063C147.715 142.963 147.715 142.863 147.715 142.863C148.115 142.263 148.115 141.663 147.915 141.063C148.915 140.063 151.515 139.963 153.015 139.963C152.815 142.563 152.015 145.163 150.615 147.363C149.715 145.963 148.715 144.463 147.815 143.063ZM158.015 139.463C158.515 139.263 159.115 139.363 159.515 139.863C159.915 140.263 160.415 140.363 160.915 140.363C161.015 140.463 161.215 140.563 161.315 140.663C161.715 142.563 161.715 144.463 161.115 146.263C159.615 144.263 158.515 141.963 158.015 139.463Z" />
<path d="M49.6152 69.9628C47.4152 73.9628 46.1152 78.2628 45.8152 82.8628C45.6152 85.4628 49.7152 85.4628 49.9152 82.8628C50.2152 79.0628 51.3152 75.4628 53.1152 72.0628C54.4152 69.7628 50.9152 67.6628 49.6152 69.9628Z" />
<path d="M60.7155 83.8628C60.5155 80.4628 60.8154 77.0628 61.8154 73.7628C62.5154 71.1628 58.5154 70.1628 57.8154 72.6628C56.8154 76.3628 56.4154 80.0628 56.6154 83.8628C56.8154 86.4628 60.9155 86.5628 60.7155 83.8628Z" />
<path d="M70.6152 85.3628C71.1152 87.9628 75.0152 86.8628 74.6152 84.2628C73.9152 80.5628 73.3152 76.7628 72.6152 73.0628C72.1152 70.4628 68.2152 71.5628 68.6152 74.1628C69.3152 77.9628 70.0152 81.6628 70.6152 85.3628Z" />
<path d="M85.7151 74.7628C85.6151 72.1628 81.5151 72.1628 81.6151 74.7628C81.7151 78.3628 81.9151 81.9628 82.4151 85.4628C82.7151 88.0628 86.8151 88.0628 86.5151 85.4628C86.0151 81.8628 85.7151 78.2628 85.7151 74.7628Z" />
<path d="M98.1154 76.5628C97.5154 74.7628 97.0154 72.2628 94.7154 71.8628C93.7154 71.6628 92.9154 71.9628 92.4154 72.7628C92.3154 72.8628 92.3154 72.9628 92.2154 73.0628C91.3154 74.4628 92.4154 75.8628 93.7154 76.0628C94.0154 76.8628 94.9154 79.8628 95.0154 80.2628C95.7154 82.2628 96.4154 84.1628 97.1154 86.1628C98.0154 88.6628 101.915 87.5628 101.115 85.0628C100.115 82.2628 99.1154 79.3628 98.1154 76.5628Z" />
<path d="M108.615 82.3628C109.615 84.7628 113.515 83.7628 112.615 81.2628C111.315 77.8628 109.915 74.4628 108.615 71.0628C107.615 68.6628 103.715 69.6628 104.615 72.1628C106.015 75.5628 107.315 78.9628 108.615 82.3628Z" />
<path d="M49.0153 102.663C49.2153 99.7628 49.4153 96.8628 49.6153 94.0628C49.8153 91.4628 45.7153 91.4628 45.5153 94.0628C45.3153 96.9628 45.1153 99.8628 44.9153 102.663C44.7153 105.363 48.8153 105.363 49.0153 102.663Z" />
<path d="M60.2153 105.263C60.2153 102.363 60.2153 99.4628 60.2153 96.5628C60.2153 93.9628 56.1152 93.9628 56.1152 96.5628C56.1152 99.4628 56.1152 102.363 56.1152 105.263C56.1152 107.863 60.2153 107.863 60.2153 105.263Z" />
<path d="M73.8154 107.263C73.1154 104.263 72.4154 101.163 71.7154 98.1628C71.1154 95.5628 67.1154 96.6628 67.7154 99.2628C68.4154 102.263 69.1154 105.363 69.8154 108.363C70.4154 110.963 74.4154 109.863 73.8154 107.263Z" />
<path d="M84.015 107.263C83.415 104.163 82.815 101.163 82.215 98.0628C81.715 95.4628 77.715 96.5628 78.215 99.1628C78.815 102.263 79.415 105.263 80.015 108.363C80.615 110.963 84.515 109.863 84.015 107.263Z" />
<path d="M94.3153 107.763C93.5153 104.863 92.6153 101.963 91.8153 99.0628C91.1153 96.5628 87.1153 97.5628 87.8153 100.163C88.6153 103.063 89.5153 105.963 90.3153 108.863C91.1153 111.363 95.0153 110.263 94.3153 107.763Z" />
<path d="M108.015 106.263C108.215 102.863 107.515 99.5628 105.915 96.4628C104.715 94.1628 101.115 96.1628 102.415 98.5628C103.715 100.963 104.115 103.563 104.015 106.263C103.815 108.963 107.915 108.863 108.015 106.263Z" />
<path d="M111.615 94.4628C113.115 97.1628 113.615 100.163 113.015 103.263C112.515 105.863 116.415 106.963 117.015 104.363C117.815 100.263 117.215 96.1628 115.215 92.4628C113.815 90.0628 110.315 92.1628 111.615 94.4628Z" />
<path d="M50.6152 115.963C50.7152 114.863 49.6152 113.863 48.5152 113.863C47.3152 113.863 46.6152 114.763 46.4152 115.963C46.0152 119.163 46.7152 122.263 48.2152 125.063C49.5152 127.363 53.0152 125.363 51.7152 122.963C50.6152 120.763 50.3152 118.463 50.6152 115.963Z" />
<path d="M60.415 118.463C60.115 115.863 56.015 115.863 56.315 118.463C56.815 122.463 58.615 126.063 61.715 128.763C63.715 130.463 66.615 127.563 64.615 125.863C62.415 123.963 60.815 121.363 60.415 118.463Z" />
<path d="M72.015 119.363C70.815 116.963 67.315 119.063 68.515 121.463C69.815 124.063 71.115 126.763 72.515 129.363C73.715 131.763 77.215 129.663 76.015 127.263C74.615 124.663 73.315 121.963 72.015 119.363Z" />
<path d="M79.3152 118.963C79.6152 122.163 79.8152 125.463 80.1152 128.663C80.3152 131.263 84.4152 131.263 84.2152 128.663C83.9152 125.463 83.7152 122.163 83.4152 118.963C83.2152 116.363 79.1152 116.363 79.3152 118.963Z" />
<path d="M94.3152 119.063C94.7152 121.963 94.0152 124.663 92.5152 127.163C91.1152 129.463 94.7152 131.463 96.0152 129.263C98.1152 125.763 98.7152 121.963 98.2152 118.063C97.9152 115.363 94.0152 116.463 94.3152 119.063Z" />
<path d="M109.215 116.463C108.415 119.663 107.015 122.463 104.815 124.863C103.015 126.863 105.915 129.763 107.715 127.763C110.415 124.863 112.215 121.363 113.215 117.563C113.815 114.963 109.815 113.863 109.215 116.463Z" />
</svg>
