<svg width="167" height="169" viewBox="0 0 167 169" xmlns="http://www.w3.org/2000/svg">
<path d="M51.9421 54.2594C39.6421 45.4594 12.5421 52.5594 18.7421 71.1594C23.7421 83.4594 39.3421 86.9595 50.4421 80.8595C60.7421 75.1595 61.2421 60.9594 51.9421 54.2594ZM50.9421 75.3595C43.3421 83.4595 26.8421 80.2595 22.7421 70.0595C18.2421 56.3595 36.2421 52.6595 45.9421 55.7594C54.6421 58.6595 57.4421 68.4595 50.9421 75.3595Z" />
<path d="M35.9422 63.8594C33.3422 63.8594 33.3422 67.9594 35.9422 67.9594C38.5422 67.9594 38.5422 63.8594 35.9422 63.8594Z" />
<path d="M166.842 26.9594C166.842 25.5594 165.542 24.7594 164.242 24.9594C150.442 27.5594 136.342 31.0594 123.342 36.5594C118.742 38.4594 120.642 44.2594 119.642 48.1594C118.142 54.2594 113.142 58.9594 107.142 60.4594C102.542 54.3594 96.3421 49.5594 88.5421 47.4594C90.8421 42.5594 91.5421 36.8594 89.9421 31.3594C89.4421 29.6594 87.1421 29.3594 86.1421 30.8594C83.5421 35.1594 79.8421 38.0594 75.0421 39.7594C74.8421 39.8594 74.6421 39.8594 74.5421 39.9594C74.4421 39.5594 74.1421 39.2594 73.5421 38.9594C70.9421 37.7594 68.2421 36.8594 65.4421 35.9594C65.4421 35.8594 65.4421 35.8594 65.4421 35.7594C64.4421 30.1594 68.6421 26.1594 68.9421 20.9594C69.1421 17.9594 64.2421 15.2594 62.3421 13.7594C55.0421 8.15942 47.0421 3.65942 38.5421 0.159418C36.6421 -0.640582 35.6421 1.75942 36.2421 3.15942C37.8421 6.95942 39.7421 10.5594 41.7421 14.0594C42.8421 15.9594 45.0421 19.2594 41.6421 20.2594C40.9421 20.4594 40.2421 21.1594 39.8421 21.7594C37.9421 24.9594 40.9421 29.6594 43.7421 33.2594C39.8421 33.5594 35.9421 34.1594 32.1421 35.2594C27.6421 36.5594 23.6421 38.6594 20.0421 41.2594C14.9421 38.4594 10.5421 34.8594 6.6421 30.5594C5.8421 29.6594 3.94215 29.8594 3.44215 30.9594C-0.657853 39.2594 -2.85787 51.3594 7.24214 56.4594C5.54214 59.6594 4.1421 63.1594 3.1421 66.7594C-1.1579 81.4594 1.5421 97.1594 14.1421 106.659C13.4421 108.559 12.9421 110.559 12.6421 112.559C12.2421 114.959 11.7421 118.159 13.1421 120.259C14.2421 122.059 16.5421 121.459 18.0421 120.559C20.9421 118.859 23.7421 116.659 26.4421 114.759C27.0421 114.359 27.3421 113.859 27.3421 113.259C31.3421 114.559 35.5421 115.359 39.8421 115.859C40.1421 120.259 42.5421 124.259 46.4421 126.559C47.5421 127.159 48.5421 126.759 49.2421 125.859C51.4421 122.959 53.0421 119.859 54.3421 116.559C56.7421 116.559 59.1421 116.459 61.4421 116.359C61.6421 125.459 62.3421 134.559 66.0421 143.059C69.5421 151.059 76.3421 157.259 83.7421 161.559C101.542 171.859 123.342 168.559 141.242 160.559C141.842 160.259 142.142 159.859 142.242 159.459C142.542 159.359 142.742 159.259 143.042 159.159C144.742 158.559 145.042 156.459 143.542 155.359C135.742 150.159 127.142 146.359 118.042 144.059C119.542 124.959 120.042 105.259 117.342 86.3594C116.642 81.2594 115.342 76.0594 113.242 71.1594C119.742 72.5594 126.342 72.8594 133.042 71.9594C135.042 71.6594 137.142 71.4594 137.742 69.1594C138.542 66.1594 137.942 61.9594 137.642 58.5594C141.042 57.9594 144.442 57.3594 147.842 56.7594C150.442 56.2594 153.742 55.1594 155.042 52.6594C157.042 48.8594 155.742 45.9594 152.942 44.2594C160.242 40.8594 166.542 35.7594 166.842 26.9594ZM78.5421 42.8594C81.7421 41.5594 84.4421 39.4594 86.7421 36.9594C87.0421 44.6594 82.4421 52.1594 75.1421 55.1594C75.0421 55.1594 75.0421 55.0594 75.0421 55.0594C72.1421 53.8594 70.4421 51.1594 70.2421 48.0594C69.8421 44.1594 75.8421 43.9594 78.5421 42.8594ZM45.4421 11.9594C44.2421 10.0594 43.2421 8.15942 42.2421 6.15942C48.0421 8.95942 53.6421 12.2594 58.8421 16.0594C60.5421 17.3594 62.2421 18.6594 63.8421 20.0594C65.6421 21.5594 63.9421 23.9594 63.2421 25.7594C61.9421 28.8594 61.2421 31.6594 61.4421 34.7594C57.4421 33.8594 53.3421 33.2594 49.2421 33.1594C47.5421 30.8594 43.0421 24.1594 43.9421 23.8594C46.3421 23.0594 47.5421 22.2594 48.2421 19.7594C49.0421 17.0594 46.7421 14.1594 45.4421 11.9594ZM9.44215 53.0594C2.54215 49.5594 3.54215 41.9594 5.94215 35.7594C9.14215 39.0594 12.8421 41.8594 16.7421 44.2594C14.0421 46.8594 11.5421 49.7594 9.44215 53.0594ZM20.2421 114.359C19.6421 114.759 17.6421 116.459 16.4421 117.159C16.2421 115.759 16.6421 113.859 16.8421 112.859C17.0421 111.559 17.3421 110.359 17.7421 109.159C19.6421 110.259 21.5421 111.259 23.5421 112.159C22.5421 112.859 21.4421 113.659 20.2421 114.359ZM47.0421 122.259C45.3421 120.759 44.3421 118.859 44.0421 116.559C46.0421 116.659 47.9421 116.759 49.9421 116.759C49.1421 118.759 48.2421 120.559 47.0421 122.259ZM113.942 145.459C113.842 145.759 113.842 146.059 113.842 146.359C113.642 149.159 113.342 151.859 113.142 154.659C112.842 157.259 116.942 157.259 117.242 154.659C117.442 152.659 117.642 150.659 117.842 148.559C125.042 150.459 131.742 153.259 138.142 157.059C137.742 157.359 137.542 157.759 137.342 158.159C124.942 163.359 111.242 165.859 98.2421 162.959C101.542 160.359 104.242 157.259 106.342 153.559C107.642 151.259 104.142 149.159 102.842 151.459C100.542 155.459 97.4421 158.759 93.5421 161.259C93.4421 161.359 93.3421 161.359 93.2421 161.459C91.1421 160.759 89.0421 159.859 87.0421 158.859C84.6421 157.659 82.4421 156.159 80.4421 154.559C85.3421 153.059 89.8421 150.959 94.1421 148.059C96.3421 146.559 94.2421 143.059 92.0421 144.559C87.3421 147.759 82.3421 149.959 76.8421 151.359C74.2421 148.659 72.0421 145.659 70.2421 142.359C69.9421 141.759 69.6421 141.159 69.3421 140.559C74.9421 142.759 80.9421 142.959 86.7421 140.859C89.2421 139.959 88.1421 135.959 85.6421 136.859C80.1421 138.859 74.4421 138.659 69.1421 135.959C68.6421 135.659 68.1421 135.659 67.6421 135.759C66.8421 132.959 66.3421 130.059 66.1421 127.159C72.9421 128.159 79.6421 127.459 86.0421 124.959C88.4421 123.959 87.4421 120.059 84.9421 120.959C78.8421 123.359 72.5421 124.059 66.0421 122.959C65.9421 122.959 65.8421 122.959 65.7421 122.959C65.6421 120.759 65.5421 118.659 65.5421 116.459C73.5421 114.359 80.2421 109.359 84.8421 102.459C86.3421 100.259 82.7421 98.1594 81.3421 100.359C77.3421 106.459 71.3421 110.659 64.3421 112.559C64.0421 112.459 63.8421 112.359 63.4421 112.359C48.8421 112.959 33.4421 113.459 20.3421 105.859C19.5421 105.459 18.8421 104.959 18.1421 104.459C17.9421 104.259 17.6421 104.059 17.3421 103.859C13.1421 100.759 9.74212 96.8594 7.54212 92.1594C4.04212 84.7594 5.1421 75.4594 7.1421 67.8594C10.6421 54.4594 20.1421 43.5594 33.3421 39.2594C37.7421 37.8594 42.4421 37.1594 47.0421 37.1594C47.7421 37.7594 48.5421 37.6594 49.1421 37.1594C55.9421 37.3594 62.6421 38.9594 68.8421 41.3594C67.9421 41.8594 67.2421 42.5594 66.6421 43.7594C64.1421 49.3594 67.4421 55.4594 72.3421 58.2594C72.6421 59.1594 73.5421 59.8594 74.7421 59.4594C79.4421 57.9594 83.4421 54.8594 86.2421 51.0594C105.342 55.4594 112.242 75.7594 113.942 93.0594C115.842 110.359 115.342 128.059 113.942 145.459ZM146.842 43.2594C145.342 43.9594 145.642 46.7594 147.342 47.0594C148.542 47.2594 149.742 47.4594 150.942 47.9594C152.342 50.4594 151.742 52.0594 149.342 52.6594C148.542 52.9594 147.742 53.1594 146.942 53.2594C143.042 54.1594 139.042 54.6594 135.142 55.3594C134.242 55.5594 133.642 56.4594 133.642 57.3594C133.742 59.9594 133.842 62.5594 133.842 65.2594C133.842 65.7594 133.642 68.4594 134.142 68.2594C132.742 68.8594 130.442 68.7594 128.942 68.8594C123.242 69.2594 117.642 68.5594 112.142 67.1594C111.842 67.0594 111.642 67.0594 111.342 67.0594C110.842 66.0594 110.242 65.0594 109.642 64.1594C118.542 61.3594 124.342 52.6594 124.442 43.3594C124.442 39.1594 129.242 38.7594 132.542 37.6594C135.942 36.4594 139.342 35.4594 142.842 34.3594C149.242 32.4594 155.842 30.9594 162.342 29.5594C160.742 36.6594 153.142 40.2594 146.842 43.2594Z" />
</svg>
