<svg width="169" height="153" viewBox="0 0 169 153" xmlns="http://www.w3.org/2000/svg">
<path d="M112.526 44.9416C113.626 43.7416 113.126 41.3416 111.126 41.5416C94.3261 42.6416 77.5261 42.9416 60.7261 42.4416C59.4261 42.4416 58.7261 43.4416 58.7261 44.4416C58.5261 44.9416 58.5261 45.5416 58.9261 46.1416C62.6261 51.7416 63.4261 58.1416 68.6261 62.7416C73.6261 67.2416 80.6261 69.0416 87.2261 68.8416C100.226 68.3416 110.326 57.3416 112.526 45.0416C112.526 45.0416 112.526 44.9416 112.526 44.9416ZM83.7261 50.6416C83.7261 50.6416 83.6261 50.5416 83.7261 50.6416C83.6261 50.5416 83.7261 50.5416 83.7261 50.6416ZM85.8261 64.7416C79.7261 64.9416 73.7261 62.3416 69.5261 57.9416C66.5261 54.8416 65.6261 50.4416 63.8261 46.5416C68.8261 46.6416 73.8261 46.7416 78.7261 46.7416C78.2261 51.6416 81.6261 56.4416 86.8261 56.4416C91.8261 56.5416 94.9261 50.9416 94.3261 46.4416C98.9261 46.2416 103.526 46.0416 108.126 45.7416C105.526 56.3416 97.1261 64.3416 85.8261 64.7416Z" />
<path d="M97.0261 89.6416C91.3261 89.3416 85.6261 89.0416 79.9261 88.7416C77.3261 88.6416 77.3261 92.7416 79.9261 92.8416C85.6261 93.1416 91.3261 93.4416 97.0261 93.7416C99.6261 93.8416 99.6261 89.7416 97.0261 89.6416Z" />
<path d="M55.1259 90.3416C49.4259 86.1416 44.1259 81.4416 42.6259 74.3416C42.0259 71.7416 38.1259 72.8416 38.6259 75.4416C40.1259 82.5416 44.9259 87.5416 50.4259 91.9416C51.6259 92.9416 52.9259 93.8416 54.1259 94.7416C56.3259 96.3416 57.2259 96.5416 53.9259 97.8416C49.2259 99.8416 43.5259 98.3416 41.6259 93.4416C40.6259 91.0416 36.7259 92.0416 37.6259 94.5416C41.3259 103.942 53.1259 105.142 60.4259 98.7416C64.0259 95.4416 56.8259 91.5416 55.1259 90.3416Z" />
<path d="M121.526 85.6416C118.526 88.6416 115.626 91.6416 112.626 94.7416C111.926 95.4416 111.726 96.9416 112.626 97.6416C120.726 103.842 129.626 98.9416 135.026 91.8416C136.626 89.7416 133.026 87.6416 131.526 89.7416C128.326 94.0416 122.626 98.2416 117.426 95.8416C120.526 92.7416 123.526 89.6416 126.526 86.5416C129.426 83.5416 131.526 80.2416 131.526 76.0416C131.526 73.4416 127.426 73.4416 127.426 76.0416C127.326 80.0416 124.226 82.8416 121.526 85.6416Z" />
<path d="M163.326 33.9416C159.726 34.0416 156.126 34.6416 152.626 34.9416C149.626 35.2416 146.726 35.3416 143.926 36.4416C141.526 37.3416 139.726 39.4416 138.026 41.4416C135.926 43.8416 133.826 46.3416 131.726 48.8416C130.626 46.3416 129.526 43.7416 128.426 41.2416C128.626 40.7416 128.726 40.3416 128.726 39.9416C128.726 39.7416 128.726 39.5416 128.626 39.3416C129.526 36.9416 130.626 34.5416 131.326 32.1416C132.526 28.0416 133.426 23.4416 132.426 19.2416C130.026 8.9416 115.226 15.3416 108.426 18.9416C108.326 18.9416 108.226 18.8416 108.126 18.8416C106.126 18.0416 104.026 17.4416 101.926 16.9416C103.526 13.5416 105.526 10.2416 107.826 7.2416C109.426 5.1416 106.526 2.24161 104.926 4.34161C102.126 7.94161 99.7259 11.8416 97.8259 16.0416C95.1259 15.5416 92.4259 15.1416 89.7259 15.0416C90.5259 11.1416 91.6259 7.3416 93.3259 3.7416C94.4259 1.3416 90.8259 -0.758395 89.8259 1.64161C88.0259 5.7416 86.6259 9.8416 85.8259 14.2416C85.8259 14.4416 85.8259 14.6416 85.8259 14.8416C84.6259 14.8416 83.4259 14.8416 82.2259 14.9416C82.6259 10.3416 82.2259 5.8416 80.9259 1.4416C80.2259 -1.0584 76.2259 -0.0583954 76.9259 2.5416C78.1259 6.7416 78.526 10.9416 78.026 15.3416C76.226 15.5416 74.5259 15.8416 72.7259 16.2416C73.1259 11.6416 72.2259 7.2416 69.9259 3.1416C68.6259 0.841605 65.0259 2.9416 66.4259 5.2416C68.4259 8.8416 69.226 12.8416 68.626 16.9416C68.626 17.0416 68.626 17.1416 68.626 17.3416C67.326 17.7416 66.1259 18.0416 64.8259 18.5416C57.4259 14.6416 46.6259 9.0416 38.9259 14.0416C35.7259 16.1416 35.626 20.5416 36.026 23.8416C36.626 29.1416 38.126 34.4416 40.026 39.3416C40.126 39.5416 40.2259 39.7416 40.3259 39.8416C40.2259 39.9416 40.226 40.0416 40.126 40.2416C39.926 40.4416 39.726 40.7416 39.626 40.9416C39.326 41.3416 39.2259 41.7416 39.2259 42.0416C38.2259 44.1416 37.2259 46.3416 36.3259 48.5416C33.3259 43.7416 30.026 38.0416 24.926 36.0416C18.026 33.3416 8.62595 34.0416 1.42595 35.5416C0.0259509 35.8416 -0.274061 37.4416 0.225939 38.5416C1.42594 41.3416 3.92594 42.9416 6.72594 44.0416C10.1259 45.3416 13.626 46.6416 17.026 47.9416C13.726 50.9416 8.92596 55.7416 10.626 58.6416C12.626 62.1416 17.926 60.4416 21.926 58.6416C21.826 61.6416 22.2259 64.7416 23.7259 67.2416C25.1259 69.6416 27.9259 69.4416 30.3259 68.7416C30.1259 69.7416 29.9259 70.6416 29.7259 71.6416C27.9259 82.3416 27.2259 94.1416 29.8259 104.842C32.2259 114.542 39.926 119.942 49.126 122.242C49.826 122.442 50.5259 122.542 51.2259 122.742C51.3259 127.042 51.4259 131.342 51.3259 135.642C45.5259 135.642 38.226 137.242 36.026 143.042C35.026 145.642 35.0259 148.342 36.7259 150.742C38.7259 153.542 43.226 152.542 46.126 152.442C50.826 152.242 55.526 151.942 60.126 151.542C62.526 151.342 68.126 151.942 69.626 149.342C71.526 146.042 71.7259 141.042 72.4259 137.342C73.2259 133.242 73.8259 129.042 74.3259 124.942C77.8259 125.042 81.226 125.042 84.526 125.042C90.526 125.042 96.526 124.942 102.626 124.442C103.026 129.142 103.626 133.742 104.526 138.242C105.026 140.742 105.326 147.042 107.926 148.442C111.326 150.242 116.326 149.842 120.026 150.042C125.426 150.342 130.726 150.342 136.126 150.142C137.126 150.142 137.826 149.542 138.126 148.642C139.626 143.942 138.026 139.642 134.826 136.142C131.326 132.342 125.726 131.542 120.726 131.242C120.826 127.742 121.426 124.442 122.526 121.142C122.526 121.042 122.526 121.042 122.526 120.942C130.426 118.342 137.126 113.142 140.226 105.042C142.226 99.9416 141.726 93.9416 141.426 88.6416C141.126 82.8416 140.226 77.0416 139.026 71.4416C138.726 69.8416 138.326 68.3416 137.826 66.7416C140.026 66.6416 142.126 65.9416 143.726 64.4416C145.026 63.2416 146.226 61.8416 146.826 60.1416C147.126 59.2416 147.326 58.4416 147.426 57.5416C147.626 55.4416 147.826 56.0416 149.826 56.1416C152.326 56.3416 159.626 56.4416 160.526 53.0416C161.126 50.7416 159.626 48.5416 157.826 46.8416C161.526 45.4416 165.326 43.4416 167.526 40.3416C170.226 37.0416 166.626 33.8416 163.326 33.9416ZM30.926 64.1416C25.326 66.8416 25.926 58.9416 26.426 55.6416C26.726 53.8416 25.126 52.4416 23.426 53.3416C21.826 54.1416 20.326 54.7416 18.626 55.3416C17.626 55.6416 15.626 55.7416 14.926 56.7416C16.826 53.6416 19.826 50.9416 22.526 48.5416C23.726 47.4416 22.926 45.6416 21.626 45.1416C18.326 43.9416 15.0259 42.6416 11.7259 41.4416C9.72594 40.7416 7.52595 40.1416 5.92595 38.8416C11.026 38.1416 16.626 38.1416 21.526 39.0416C27.726 40.2416 31.326 48.3416 34.626 53.0416L34.7259 53.1416C33.5259 56.6416 32.426 60.2416 31.526 63.9416C31.326 64.0416 31.126 64.0416 30.926 64.1416ZM68.126 139.242C67.626 141.742 67.126 144.242 66.526 146.642C66.326 147.342 58.1259 147.542 57.2259 147.542C52.0259 147.942 46.826 148.142 41.626 148.342C39.726 147.942 39.1259 146.842 39.8259 145.042C40.2259 143.142 42.026 142.042 43.526 141.242C46.526 139.542 50.326 139.542 53.626 139.742C54.726 139.842 55.6259 138.742 55.7259 137.642C55.8259 132.942 55.726 128.142 55.626 123.442C60.526 124.242 65.526 124.642 70.526 124.842C69.826 129.642 69.026 134.442 68.126 139.242ZM134.826 146.142C127.826 146.342 120.926 146.142 113.926 145.442C111.826 145.242 110.726 145.442 110.226 143.242C109.726 141.242 109.226 139.142 108.826 137.142C107.926 132.842 107.426 128.442 107.026 124.042C110.826 123.642 114.626 123.042 118.326 122.242C117.326 125.842 116.926 129.442 117.026 133.242C117.026 134.442 117.926 135.242 119.126 135.342C125.226 135.642 136.326 137.842 134.826 146.142ZM137.726 98.9416C135.926 121.742 102.726 120.742 86.4259 120.942C75.7259 121.042 64.726 120.542 54.126 118.942C44.026 117.442 36.3259 112.842 33.8259 102.542C31.4259 92.6416 32.6259 81.2416 34.3259 71.3416C36.0259 61.2416 39.426 51.4416 44.026 42.2416C46.026 39.4416 48.0259 36.5416 49.8259 33.5416C51.2259 31.2416 47.6259 29.2416 46.3259 31.4416C45.4259 32.9416 44.426 34.4416 43.526 35.8416C41.326 30.0416 37.4259 18.7416 42.9259 16.5416C49.4259 13.9416 58.8259 19.7416 64.3259 22.6416C65.3259 23.1416 66.2259 22.8416 66.8259 22.2416C79.9259 17.8416 93.8259 17.9416 106.926 22.6416C107.426 23.4416 108.526 23.9416 109.626 23.3416C113.526 21.1416 117.626 19.6416 122.026 18.5416C124.526 17.9416 127.826 17.3416 128.926 20.4416C129.426 21.9416 129.226 23.7416 129.126 25.3416C128.726 29.7416 126.926 33.6416 125.426 37.6416C124.526 36.1416 123.726 34.6416 123.126 32.9416C122.226 30.4416 118.226 31.5416 119.126 34.0416C120.526 38.0416 122.726 41.5416 125.626 44.5416C125.726 44.6416 125.826 44.7416 126.026 44.8416C133.026 61.8416 139.126 80.0416 137.726 98.9416ZM161.426 40.6416C160.626 41.1416 159.826 41.5416 159.026 41.9416C157.226 42.9416 155.226 43.6416 153.326 44.3416C151.626 44.9416 151.326 47.1416 152.826 48.1416C154.426 49.1416 155.426 50.1416 156.426 51.5416C155.326 51.8416 154.326 52.0416 153.226 52.1416C151.026 52.4416 147.926 51.2416 145.926 52.4416C144.426 53.3416 143.926 54.9416 143.726 56.6416C143.426 60.2416 140.626 63.2416 136.926 62.7416C135.926 59.5416 134.726 56.2416 133.526 53.1416C135.626 50.6416 137.826 48.0416 139.926 45.5416C143.226 41.6416 145.826 39.8416 151.026 39.3416C155.126 38.9416 159.226 38.5416 163.326 38.1416C163.226 39.4416 162.626 40.2416 161.426 40.6416Z" />
</svg>
