<?xml version="1.0" encoding="UTF-8" standalone="no"?>
<svg
   xmlns="http://www.w3.org/2000/svg"
   width="210mm"
   height="297mm"
   viewBox="0 0 210 297"
   version="1.1"
   id="svg8">

  <g
     id="layer1">
    <path
       style="fill:#000000;stroke-width:0.128918"
       d="m 105.16069,242.86393 c -0.38998,-0.0554 -1.21287,-0.10636 -1.82865,-0.11337 -0.61579,-0.007 -1.54399,-0.1051 -2.06269,-0.21798 -0.51869,-0.11286 -1.14613,-0.23364 -1.394294,-0.26837 -2.22001,-0.31069 -3.54911,-0.62177 -5.41455,-1.26728 -0.46089,-0.15949 -1.08759,-0.3584 -1.39269,-0.44203 -0.30509,-0.0836 -0.5855,-0.23228 -0.62313,-0.33033 -0.0376,-0.0981 -0.252108,-0.21394 -0.476618,-0.25753 -0.22452,-0.0436 -0.61126,-0.15903 -0.85943,-0.25655 -1.00029,-0.39307 -1.89609,-0.60569 -2.93607,-0.69689 -0.0904,-0.008 -0.22004,-0.16093 -0.28813,-0.34001 -0.0681,-0.17908 -0.22619,-0.36276 -0.35133,-0.40818 -0.12515,-0.0454 -0.44048,-0.24819 -0.70074,-0.45062 -0.26025,-0.20242 -0.72796,-0.48074 -1.03935,-0.61849 -0.3114,-0.13774 -0.67845,-0.37451 -0.81569,-0.52616 -0.13723,-0.15164 -0.41805,-0.36286 -0.62403,-0.46937 -0.55551,-0.28727 -2.62663,-1.80083 -3.35797,-2.45399 -0.35082,-0.31333 -0.84394,-0.68335 -1.0958,-0.82229 -0.57871,-0.31924 -1.13103,-0.72202 -1.62146,-1.18246 -0.21093,-0.19802 -0.68319,-0.56046 -1.04948,-0.80543 -0.36628,-0.24496 -0.68536,-0.49267 -0.70905,-0.55049 -0.0237,-0.0578 -0.44916,-0.38528 -0.9455,-0.72768 -0.49633,-0.34241 -1.17532,-0.86088 -1.50887,-1.15214 -0.96078,-0.83901 -1.50405,-1.2603 -2.14688,-1.66486 -0.52161,-0.32826 -1.71812,-1.48268 -2.83325,-2.73359 -0.19027,-0.21343 -0.54848,-0.53165 -0.79601,-0.70714 -1.5149,-1.07396 -3.90293,-3.49026 -4.71945,-4.77531 -0.56184,-0.88422 -1.60808,-2.04533 -1.78263,-1.97835 -0.16186,0.0621 -0.45158,-0.45005 -0.46775,-0.82692 -0.01,-0.22863 -0.0854,-0.35919 -0.98969,-1.70901 -0.30135,-0.44982 -0.5479,-0.8976 -0.5479,-0.99509 0,-0.0975 -0.4351,-1.06228 -0.96689,-2.144 -0.53178,-1.08171 -0.96688,-2.06169 -0.96688,-2.17773 0,-0.11604 -0.084,-0.40149 -0.18676,-0.63434 -0.10272,-0.23284 -0.4885,-1.38057 -0.85728,-2.5505 -0.36878,-1.16993 -0.74697,-2.24463 -0.84041,-2.38823 -0.0935,-0.14359 -0.19734,-0.52067 -0.23086,-0.83796 -0.064,-0.60589 -0.31807,-1.61598 -0.97187,-3.86402 -0.21648,-0.74435 -0.3936,-1.56375 -0.3936,-1.82088 0,-0.25712 -0.087,-0.71414 -0.19338,-1.01559 -0.10636,-0.30145 -0.1953,-0.72934 -0.19765,-0.95086 -0.002,-0.22153 -0.12011,-0.9539 -0.26167,-1.62749 -0.14157,-0.6736 -0.31256,-1.62004 -0.37998,-2.1032 -0.0674,-0.48314 -0.1554,-0.93155 -0.19551,-0.99644 -0.0401,-0.0649 -0.12615,-0.53978 -0.19121,-1.0553 -0.0651,-0.51553 -0.20735,-1.37242 -0.31618,-1.90421 -0.10884,-0.53178 -0.19864,-1.16993 -0.19957,-1.41809 -0.003,-0.69542 -0.34908,-1.83875 -0.59974,-1.97903 -0.45982,-0.25733 -2.36399,-2.19233 -2.36399,-2.40226 0,-0.21975 -0.78186,-1.3975 -1.42698,-2.14953 -0.19213,-0.22397 -0.44931,-0.71708 -0.57151,-1.0958 -0.1222,-0.37872 -0.35882,-0.9278 -0.52581,-1.22016 -0.16699,-0.29237 -0.33888,-0.78548 -0.38198,-1.0958 -0.0431,-0.31033 -0.22445,-0.86592 -0.40302,-1.23465 -0.45607,-0.94177 -0.56809,-1.44165 -0.702,-3.13266 -0.0646,-0.81541 -0.17466,-1.65075 -0.24465,-1.85632 -0.07,-0.20557 -0.12909,-0.69868 -0.13134,-1.0958 -0.002,-0.39712 -0.0874,-1.33118 -0.18929,-2.07568 -0.10187,-0.7445 -0.18749,-1.78873 -0.19027,-2.32052 -0.005,-1.03068 -0.18927,-2.43481 -0.38831,-2.96511 -0.0665,-0.17726 -0.14215,-0.6453 -0.16805,-1.04009 -0.0259,-0.39478 -0.0787,-0.77187 -0.11725,-0.83796 -0.0386,-0.0661 -0.11087,-0.41024 -0.16064,-0.76477 -0.0498,-0.35452 -0.17086,-0.90565 -0.26911,-1.22472 -0.57612,-1.87103 -0.7046,-2.36328 -0.7046,-2.69957 0,-0.50951 -0.37372,-1.93065 -0.59753,-2.27223 -0.10036,-0.15318 -0.27173,-0.70656 -0.38082,-1.22975 -0.10909,-0.52319 -0.27453,-1.03875 -0.36765,-1.1457 -0.0931,-0.10694 -0.24896,-0.4265 -0.34631,-0.71012 -0.0974,-0.28362 -0.35104,-0.76816 -0.56375,-1.07675 -0.21272,-0.30859 -0.44269,-0.65667 -0.51106,-0.77351 -0.5414,-0.92518 -1.91378,-2.7138 -2.38863,-3.11308 -0.16149,-0.13579 -0.2511,-0.45062 -0.30091,-1.05721 -0.039,-0.47511 -0.11979,-0.96822 -0.17952,-1.0958 -0.1477,-0.31553 -0.10725,-0.92154 0.0736,-1.10237 0.0814,-0.0814 0.14805,-0.38859 0.14805,-0.68259 0,-0.52784 0.27641,-1.2512 0.60469,-1.58248 0.0928,-0.0937 0.16882,-0.21976 0.16882,-0.28015 0,-0.0604 0.1679,-0.29443 0.37312,-0.52009 0.63801,-0.70161 0.78714,-0.89465 0.78714,-1.01894 0,-0.0661 0.11558,-0.15692 0.25685,-0.20175 0.14128,-0.0448 0.56187,-0.32322 0.93466,-0.61863 0.37279,-0.2954 0.96786,-0.6502 1.32239,-0.78843 1.1056,-0.43107 3.5263,-0.29972 4.78944,0.25989 0.22343,0.099 0.44098,0.17997 0.48344,0.17997 0.0425,0 0.18451,0.10152 0.31567,0.22561 0.13115,0.12408 0.3487,0.32052 0.48344,0.43653 0.13474,0.116 0.62207,0.59953 1.08295,1.07451 0.46088,0.47497 0.93949,0.91872 1.06357,0.9861 0.12408,0.0674 0.2256,0.17558 0.2256,0.24044 0,0.17804 0.71177,1.19598 1.03947,1.48661 l 0.28832,0.2557 -0.0922,-0.3783 c -0.0507,-0.20806 -0.11883,-0.92638 -0.1514,-1.59626 -0.0326,-0.66988 -0.12228,-1.45686 -0.19938,-1.74884 -0.15567,-0.58957 -0.20442,-1.11316 -0.27149,-2.91587 -0.0251,-0.67359 -0.17851,-2.46676 -0.341,-3.98481 -0.18396,-1.71869 -0.26056,-2.98338 -0.203,-3.35187 0.13876,-0.88845 0.22091,-2.54829 0.36151,-7.30362 0.0423,-1.43074 0.12119,-2.21431 0.25522,-2.5351 0.10685,-0.25573 0.17156,-0.69716 0.14406,-0.98269 -0.0282,-0.29267 0.0294,-0.67137 0.13232,-0.86969 0.1188,-0.22899 0.18379,-0.78169 0.18667,-1.58755 0.006,-1.76888 0.13792,-3.72056 0.29633,-4.39474 0.075,-0.31907 0.15099,-0.8992 0.16894,-1.28918 0.018,-0.38998 0.13105,-1.14415 0.25133,-1.67593 0.12029,-0.53179 0.22058,-1.05391 0.22287,-1.16026 0.007,-0.33546 0.24251,-1.47168 0.3604,-1.74039 0.0622,-0.14181 0.17562,-0.80896 0.25201,-1.48256 0.0764,-0.6736 0.26121,-1.572802 0.41072,-1.998232 0.17804,-0.50659 0.31074,-1.32957 0.38457,-2.38498 0.18062,-2.58214 0.22152,-2.89563 0.42998,-3.29538 0.11912,-0.22842 0.19784,-0.71797 0.19832,-1.23323 7.7e-4,-0.85293 0.23378,-1.65074 0.60374,-2.06738 0.10478,-0.118 0.1768,-0.32105 0.16004,-0.45121 -0.0168,-0.13016 0.0161,-0.4107 0.073,-0.62341 0.16602,-0.62058 1.12659,-2.53305 1.30705,-2.6023 0.0908,-0.0348 0.23169,-0.27574 0.31319,-0.53536 0.27166,-0.86539 1.17455,-2.63223 1.74755,-3.41969 0.3114,-0.42796 0.56618,-0.84266 0.56618,-0.92157 0,-0.0789 0.17404,-0.3102 0.38676,-0.51399 0.21271,-0.2038 0.38675,-0.42005 0.38675,-0.48056 0,-0.37805 2.77598,-3.81089 3.57513,-4.421083 0.33331,-0.254505 0.70231,-0.609519 0.82,-0.788918 0.11768,-0.179401 0.40433,-0.451749 0.63699,-0.60522 0.23266,-0.15347 0.5565,-0.369598 0.71964,-0.480286 0.46004,-0.312133 1.61926,-1.317185 1.84494,-1.599573 0.11155,-0.139596 0.39137,-0.440269 0.62181,-0.668162 0.23044,-0.227895 0.41899,-0.453411 0.41899,-0.501147 0,-0.04774 0.16368,-0.298188 0.36374,-0.556559 0.20006,-0.25837 0.43972,-0.659681 0.53258,-0.891803 0.0929,-0.23212 0.23391,-0.464172 0.31345,-0.515671 0.0795,-0.0515 0.31848,-0.35114 0.53099,-0.665873 0.21251,-0.314731 0.50241,-0.698829 0.64422,-0.853552 0.14181,-0.154722 0.38022,-0.419332 0.52981,-0.588022 0.14959,-0.16869 0.41065,-0.43097 0.58013,-0.582844 0.16948,-0.151875 0.37789,-0.354921 0.46313,-0.451213 0.0852,-0.09629 0.23026,-0.249118 0.32229,-0.339613 0.092,-0.0905 0.45739,-0.506045 0.81191,-0.923443 0.35452,-0.417399 0.73758,-0.794159 0.85123,-0.837246 0.11366,-0.04309 0.51975,-0.370965 0.90243,-0.728619 0.60313,-0.563688 1.1059,-0.939026 2.69401,-2.011185 0.17726,-0.119673 0.46732,-0.342772 0.64458,-0.495777 0.17727,-0.153004 0.65686,-0.410358 1.06577,-0.571897 0.40891,-0.161539 0.77647,-0.347092 0.81679,-0.412339 0.0403,-0.06525 0.60497,-0.377661 1.25476,-0.694252 0.64979,-0.316591 1.49936,-0.749179 1.88793,-0.961306 0.38857,-0.212128 0.77206,-0.385686 0.8522,-0.385686 0.0801,0 0.37136,-0.153875 0.64714,-0.341944 0.27579,-0.188069 0.67548,-0.388486 0.88819,-0.44537 0.21271,-0.05689 1.08291,-0.341738 1.93377,-0.633009 1.83087,-0.626753 2.41844,-0.762542 3.56524,-0.823937 0.47188,-0.02526 0.912408,-0.07958 0.978938,-0.120696 0.0665,-0.04112 0.69568,-0.111542 1.39809,-0.156492 1.81136,-0.115917 2.01163,-0.139833 2.37293,-0.283369 1.19655,-0.475367 8.072294,-0.346667 8.902854,0.166643 0.073,0.04511 0.20298,0.02368 0.28888,-0.04761 0.0916,-0.07602 0.79559,-0.113766 1.70251,-0.09128 1.42752,0.0354 1.90175,0.07997 2.77105,0.260406 0.32727,0.06793 2.83213,0.306082 4.12537,0.392225 1.3759,0.09165 2.25795,0.220907 2.4238,0.355192 0.0923,0.0747 0.5361,0.122459 0.9863,0.106138 0.45021,-0.01632 0.85263,0.02543 0.89425,0.09279 0.0416,0.06735 0.35196,0.162445 0.68963,0.211312 0.7592,0.109871 2.30811,0.544851 2.74109,0.769779 0.17727,0.09208 0.47516,0.203747 0.66198,0.248138 0.18683,0.04439 0.64226,0.284325 1.01207,0.53319 0.36981,0.248865 0.74214,0.452481 0.8274,0.452481 0.22399,0 2.22329,0.982793 2.32104,1.14095 0.0453,0.07333 0.35661,0.172562 0.69176,0.22051 0.60762,0.08693 1.40956,0.440531 1.89853,0.837126 0.14181,0.11502 0.46088,0.287393 0.70905,0.383053 0.24816,0.09566 0.79929,0.389599 1.22472,0.6532 0.42543,0.2636 1.35363,0.749839 2.06268,1.080531 2.1361,0.996255 2.29822,1.098121 2.90065,1.822672 0.31908,0.383748 0.73967,0.879665 0.93466,1.102039 0.19499,0.222374 0.35452,0.47374 0.35452,0.558592 0,0.08485 0.11603,0.259278 0.25784,0.387614 0.14181,0.128336 0.25783,0.33203 0.25783,0.452654 0,0.120624 0.20305,0.485238 0.45122,0.810253 0.24816,0.325013 0.45121,0.657976 0.45121,0.739915 0,0.08194 0.11734,0.313774 0.26076,0.515191 0.14342,0.201414 0.43699,0.742797 0.65238,1.20307 0.21539,0.460275 0.47513,0.906172 0.5772,0.990885 0.10208,0.08471 0.18559,0.282961 0.18559,0.440553 0,0.15759 0.11603,0.39153 0.25784,0.519866 0.14181,0.128337 0.26019,0.296864 0.26307,0.374506 0.003,0.07764 0.17692,0.34202 0.38675,0.587509 0.20984,0.245488 0.38152,0.492547 0.38152,0.549017 0,0.149997 0.50501,0.698915 2.41937,2.62972 0.94067,0.948756 1.7622,1.725016 1.82561,1.725016 0.0634,0 0.27234,0.18854 0.46427,0.41898 0.19193,0.23044 0.65704,0.74902 1.03359,1.15239 0.37654,0.40338 0.91083,1.15755 1.18731,1.67594 0.70445,1.32081 0.9614,1.75446 1.46282,2.46877 0.93083,1.32603 1.41993,2.10975 1.73707,2.7834 0.34542,0.73375 0.43426,0.95599 1.07291,2.68417 0.21618,0.58498 0.4732,1.22312 0.57116,1.4181 0.28506,0.56739 0.74407,2.65703 1.01236,4.60879 0.31878,2.31912 0.45044,3.11693 0.60629,3.67416 0.0694,0.24817 0.15757,0.567242 0.1959,0.709052 0.0383,0.14181 0.0986,0.5769 0.134,0.96688 0.0921,1.015 0.30793,2.23682 0.59223,3.35187 0.45122,1.76968 0.64448,4.62951 0.68202,10.09195 0.0194,2.82074 0.0146,5.14924 -0.0106,5.17445 -0.0252,0.0252 -0.0657,0.676 -0.09,1.4462 -0.0243,0.7702 -0.13332,1.80645 -0.24223,2.30279 -0.13408,0.61107 -0.22453,2.00539 -0.28015,4.31875 -0.0452,1.87898 -0.13663,3.99645 -0.20323,4.7055 -0.23516,2.50374 -0.25499,3.41632 -0.0742,3.41632 0.0918,0 0.4779,-0.23205 0.85803,-0.51567 0.38014,-0.28362 0.79187,-0.51567 0.91497,-0.51567 0.12309,0 0.24314,-0.0502 0.26678,-0.11151 0.0533,-0.13839 1.62045,-0.91983 1.84466,-0.91983 0.0901,0 0.44234,-0.12323 0.78283,-0.27384 1.50194,-0.66438 3.78944,0.27787 4.20216,1.73094 0.21206,0.74659 0.19037,2.04455 -0.0521,3.11524 -0.14931,0.65939 -0.16696,0.96622 -0.0664,1.1541 0.0988,0.18466 0.0962,0.26949 -0.009,0.30467 -0.26294,0.0876 -0.79312,1.48757 -0.79312,2.09421 0,0.19347 -0.0806,0.5474 -0.17922,0.7865 -0.15948,0.38684 -0.26108,1.2469 -0.42448,3.59321 -0.0272,0.38998 -0.0703,3.63871 -0.0959,7.21941 -0.0469,6.56594 -0.0579,6.86231 -0.31062,8.37966 -0.21533,1.29305 -0.51573,3.45487 -0.60907,4.38321 -0.0463,0.46088 -0.15754,0.92499 -0.24712,1.03134 -0.0896,0.10636 -0.20286,0.51245 -0.25173,0.90243 -0.0489,0.38997 -0.17989,0.84897 -0.29116,1.01998 -0.11128,0.17101 -0.25461,0.77829 -0.31851,1.3495 -0.079,0.70641 -0.19267,1.12236 -0.35529,1.30054 -0.13151,0.14409 -0.28177,0.40223 -0.33392,0.57364 -0.0522,0.17142 -0.47942,0.71185 -0.94947,1.20095 -0.47006,0.4891 -0.94256,1.05834 -1.05,1.26497 -0.30169,0.58025 -2.46018,2.38838 -3.37302,2.82553 -0.44816,0.21462 -1.04626,0.59357 -1.3291,0.84211 -0.28285,0.24853 -0.61642,0.45188 -0.74128,0.45188 -0.18863,0 -0.22964,0.12536 -0.24251,0.74128 -0.0356,1.70482 -0.17144,4.18469 -0.31945,5.83353 -0.0414,0.46089 -0.21732,1.59214 -0.39101,2.5139 -0.17368,0.92177 -0.37023,2.62392 -0.43676,3.78256 -0.11015,1.91825 -0.31931,3.44472 -0.63823,4.65783 -0.0658,0.25023 -0.15295,0.75749 -0.19372,1.12727 -0.10235,0.9283 -0.23072,1.53273 -0.70601,3.32413 -0.22575,0.85086 -0.43925,1.77907 -0.47446,2.06269 -0.0352,0.28362 -0.12177,0.74772 -0.19237,1.03134 -0.0706,0.28362 -0.23166,1.00879 -0.35793,1.61148 -0.12627,0.60269 -0.29532,1.29885 -0.37566,1.54701 -0.0804,0.24817 -0.29973,0.94433 -0.48752,1.54702 -0.1878,0.60269 -0.44482,1.32973 -0.57117,1.61566 -0.12635,0.28593 -0.29495,0.76209 -0.37467,1.05813 -0.0797,0.29605 -0.20137,0.57315 -0.27035,0.61578 -0.069,0.0426 -0.12542,0.18435 -0.12542,0.31495 0,0.13059 -0.22038,0.66837 -0.48974,1.19506 -0.26935,0.52671 -0.59687,1.24312 -0.72781,1.59204 -0.38392,1.02301 -0.77682,1.73655 -1.47708,2.68248 -0.36147,0.48831 -0.65723,0.94283 -0.65723,1.01006 0,0.0672 -0.37708,0.90646 -0.83797,1.86495 -0.46088,0.9585 -0.83796,1.76284 -0.83796,1.78745 0,0.10396 -0.78346,1.19461 -0.9684,1.34809 -0.111,0.0921 -0.51225,0.63713 -0.89168,1.21115 -0.37943,0.57401 -0.84129,1.18429 -1.02637,1.35619 -0.18507,0.1719 -0.3365,0.38656 -0.3365,0.47702 0,0.0905 -0.27139,0.38494 -0.6031,0.65435 -0.3317,0.26943 -0.72329,0.60709 -0.87019,0.75038 -0.14691,0.14328 -0.49308,0.37533 -0.76929,0.51567 -0.2762,0.14033 -0.99758,0.73574 -1.60307,1.32311 -0.60548,0.58738 -1.22782,1.1385 -1.38296,1.22472 -0.35944,0.19975 -2.10341,1.63747 -3.00497,2.47729 -0.38059,0.35452 -0.79699,0.7419 -0.92532,0.86082 -0.12834,0.11892 -0.48412,0.35636 -0.79062,0.52762 -0.30651,0.17127 -0.99238,0.60221 -1.52417,0.95765 -0.53178,0.35544 -1.11191,0.72133 -1.28917,0.81308 -0.17727,0.0918 -0.3513,0.20807 -0.38676,0.25847 -0.0354,0.0504 -0.253,0.18823 -0.48344,0.30629 -0.23044,0.11808 -0.41898,0.27121 -0.41898,0.3403 0,0.0691 -0.0741,0.1256 -0.16462,0.1256 -0.0905,0 -0.47031,0.22969 -0.84394,0.51044 -0.37362,0.28073 -1.01021,0.67865 -1.41462,0.88425 -0.40442,0.20559 -0.95363,0.52205 -1.22047,0.70324 -0.26684,0.18118 -0.72118,0.3693 -1.00965,0.41805 -0.28847,0.0487 -0.67928,0.16937 -0.86848,0.26807 -0.18919,0.0987 -0.4616,0.17984 -0.60536,0.18026 -0.14376,0 -0.39042,0.0912 -0.54813,0.20164 -0.15771,0.11047 -0.33848,0.16889 -0.40171,0.1298 -0.0632,-0.0391 -0.36622,0.0176 -0.67332,0.12595 -0.30709,0.10834 -0.73386,0.22122 -0.94838,0.25085 -0.21452,0.0296 -0.66376,0.10678 -0.99831,0.17147 -0.33455,0.0647 -0.63772,0.0882 -0.6737,0.0522 -0.036,-0.036 -0.1425,-0.001 -0.2367,0.0767 -0.0963,0.0799 -0.78922,0.15518 -1.58236,0.1719 -0.7761,0.0164 -1.47473,0.0764 -1.55253,0.13349 -0.0778,0.0571 -0.74494,0.13471 -1.48255,0.17255 -1.99111,0.10215 -3.11461,0.18048 -3.4038,0.23732 -0.14181,0.0279 -0.57691,0.005 -0.96688,-0.0499 z M 89.461638,218.14672 c 0.1088,-0.12409 0.29967,-0.42865 0.42416,-0.67682 0.12449,-0.24817 0.38247,-0.59625 0.57329,-0.77351 0.55786,-0.51824 1.81628,-2.30348 2.173088,-3.08286 0.39583,-0.86462 0.74163,-1.25435 1.21597,-1.37044 0.42661,-0.10442 0.45181,0.0636 0.15552,1.03698 -0.10791,0.35452 -0.23217,1.26823 -0.27614,2.03045 -0.0712,1.23511 -0.0568,1.38587 0.13315,1.38587 0.11719,0 0.21307,-0.0453 0.21307,-0.10058 0,-0.0553 0.26067,-0.50493 0.57926,-0.99911 0.3186,-0.4942 0.57966,-0.9482 0.58013,-1.0089 5.2e-4,-0.0607 0.16799,-0.32176 0.37224,-0.58013 0.22204,-0.28088 0.43285,-0.76678 0.52427,-1.20843 0.11973,-0.57841 0.2416,-0.80808 0.56176,-1.05865 0.22488,-0.176 0.44967,-0.27869 0.49954,-0.22822 0.0965,0.0977 -0.0614,2.2088 -0.27603,3.6911 -0.0916,0.6326 -0.0881,0.94153 0.012,1.06215 0.23653,0.28499 0.2357,0.28607 1.19282,-1.56746 0.25629,-0.49633 0.53286,-1.10408 0.6146,-1.35054 0.0817,-0.24647 0.2556,-0.62355 0.38635,-0.83797 0.13076,-0.21441 0.23796,-0.49967 0.23823,-0.63391 2.5e-4,-0.13423 0.13101,-0.6378 0.29054,-1.11903 0.30519,-0.92057 0.547254,-1.12828 0.960894,-0.82455 0.22032,0.16177 0.22097,0.20036 0.0133,0.7921 -0.30318,0.86403 -0.61946,2.44838 -0.61959,3.10371 -9e-5,0.48682 0.0332,0.5479 0.29832,0.5479 0.20508,0 0.36802,-0.13105 0.52095,-0.41898 0.33133,-0.62379 0.52784,-0.95148 0.68756,-1.14651 0.0788,-0.0962 0.2434,-0.58099 0.36583,-1.07733 0.12243,-0.49633 0.30227,-1.05908 0.39964,-1.25054 0.0974,-0.19147 0.17704,-0.49881 0.17704,-0.68298 0,-0.37141 0.55264,-0.96713 0.89719,-0.96713 0.14775,0 0.32766,0.29222 0.57543,0.93465 0.53412,1.3849 0.73134,1.77263 0.90167,1.77263 0.19864,0 0.67713,-2.07759 0.78681,-3.41633 0.0465,-0.56724 0.10879,-1.32141 0.13847,-1.67593 0.0297,-0.35453 0.0817,-0.71942 0.11551,-0.81087 0.11347,-0.30655 -0.0957,-2.08978 -0.24508,-2.08978 -0.0792,0 -0.28744,0.23205 -0.46273,0.51567 -0.17528,0.28362 -0.36147,0.51567 -0.41374,0.51567 -0.0896,0 -0.39686,0.26398 -1.96434,1.68742 -0.74006,0.67206 -1.009,0.80416 -1.21591,0.59725 -0.23109,-0.23109 -0.18304,-0.32903 0.54054,-1.10175 0.87217,-0.93143 1.2486,-1.42932 1.2486,-1.65153 0,-0.27257 -0.24853,-0.20971 -0.70586,0.17854 -0.7755,0.65837 -0.97266,0.80574 -1.07799,0.80574 -0.0577,0 -0.24561,0.15031 -0.41751,0.33401 -0.67348,0.71974 -1.981894,1.47084 -2.562204,1.47084 -0.30721,0 -0.39316,-0.0564 -0.39316,-0.25784 0,-0.32883 0.44034,-0.7735 0.76594,-0.7735 0.28171,0 2.089794,-1.58706 2.305344,-2.02354 0.0769,-0.15573 0.33104,-0.50381 0.56474,-0.7735 0.23369,-0.2697 0.48928,-0.60709 0.56798,-0.74975 0.2499,-0.45306 0.58733,-1.76961 0.47787,-1.86457 -0.0579,-0.0503 -0.492,-0.19267 -0.96466,-0.31649 -0.72875,-0.19093 -0.97027,-0.20213 -1.58898,-0.0737 -0.628064,0.13038 -0.761084,0.12299 -0.955634,-0.0531 -0.12431,-0.1125 -0.31955,-0.20454 -0.43386,-0.20454 -0.11432,0 -0.23929,-0.0509 -0.27772,-0.11306 -0.0384,-0.0622 -0.33604,-0.18009 -0.66136,-0.262 -0.65963,-0.1661 -1.31533,-0.54891 -1.99126,-1.16255 -0.24817,-0.22528 -0.74128,-0.6103 -1.0958,-0.85556 -0.35453,-0.24527 -0.87664,-0.62131 -1.16026,-0.83565 -0.28362,-0.21435 -0.73073,-0.53191 -0.99357,-0.70571 -0.26285,-0.1738 -0.542528,-0.43677 -0.621528,-0.58437 -0.079,-0.14761 -0.3988,-0.4302 -0.71067,-0.62798 -0.31188,-0.19779 -0.78636,-0.54518 -1.05441,-0.772 -0.26805,-0.22681 -0.76381,-0.61252 -1.1017,-0.85711 -0.59936,-0.43389 -0.63967,-0.44353 -1.65333,-0.39557 -0.95759,0.0453 -1.07155,0.0807 -1.45449,0.45188 -0.45255,0.43863 -0.65681,0.49624 -0.81579,0.23012 -0.0567,-0.0949 -0.21912,-0.23627 -0.36093,-0.31411 -0.22653,-0.12436 -0.37128,-0.0245 -1.19249,0.82253 -0.51405,0.53024 -0.93465,1.04526 -0.93465,1.14447 0,0.0992 -0.0494,0.21094 -0.10979,0.24826 -0.0604,0.0373 -0.21324,0.34532 -0.33967,0.68442 -0.31795,0.85285 -0.69618,1.73942 -0.84055,1.97022 -0.0665,0.10635 -0.21931,0.39642 -0.33951,0.64459 -0.12021,0.24816 -0.28767,0.53823 -0.37214,0.64459 -0.26697,0.33614 -0.29996,0.75246 -0.10972,1.38457 0.10147,0.33718 0.20896,1.20849 0.23886,1.93629 0.0598,1.4553 0.0957,1.57802 0.46203,1.57802 0.21466,0 0.25023,0.0925 0.25023,0.65099 0,0.35805 0.0828,0.81108 0.18396,1.00674 0.1044,0.20188 0.13911,0.42831 0.0803,0.52353 -0.057,0.0923 -0.0768,0.27086 -0.0438,0.39681 0.0329,0.12597 -0.003,0.268 -0.0803,0.31564 -0.0771,0.0476 -0.14015,0.39849 -0.14015,0.77966 0,0.38119 -0.0626,0.85636 -0.13914,1.05597 -0.0765,0.1996 -0.1926,0.82702 -0.25792,1.39426 -0.0653,0.56724 -0.15451,1.19088 -0.19818,1.38586 -0.12888,0.57544 0.23227,0.43203 0.58461,-0.23212 0.17118,-0.32267 0.48186,-0.73025 0.69042,-0.90574 0.20856,-0.17549 0.47691,-0.59314 0.59633,-0.92812 0.17434,-0.48901 0.28272,-0.61678 0.54985,-0.64827 0.21049,-0.0248 0.36121,0.0351 0.41031,0.16305 0.073,0.19031 -0.098,2.65238 -0.25777,3.71147 -0.10457,0.69301 0.22475,0.6397 0.75691,-0.12254 0.5052,-0.72362 2.25999,-2.48977 2.46798,-2.48395 0.0807,0.002 0.254,0.0854 0.38514,0.18475 0.21345,0.16171 0.22137,0.23225 0.0755,0.67272 -0.0896,0.27064 -0.17165,0.75312 -0.18233,1.0722 -0.0107,0.31907 -0.11597,0.92122 -0.23398,1.3381 -0.118,0.41688 -0.18334,0.80847 -0.1452,0.8702 0.12403,0.20067 0.42154,0.11848 0.50328,-0.13905 0.0439,-0.1382 0.25891,-0.44277 0.4779,-0.67682 0.21898,-0.23405 0.50934,-0.68661 0.64525,-1.00568 0.1359,-0.31907 0.39699,-0.79803 0.5802,-1.06436 0.26227,-0.38125 0.37039,-0.45329 0.50841,-0.33873 0.20673,0.17156 0.22466,0.57433 0.0487,1.09379 -0.13008,0.38401 -0.18808,0.92053 -0.38881,3.59671 -0.0638,0.85086 -0.14507,1.74583 -0.18056,1.98883 -0.098,0.67086 0.0974,0.85003 0.46708,0.42838 z M 120.7083,215.3368 c 0.0453,-0.18054 0.0446,-0.65915 -0.002,-1.06358 -0.0462,-0.40442 -0.11734,-1.21338 -0.15805,-1.79769 -0.0642,-0.92077 -0.045,-1.07351 0.14376,-1.14595 0.35992,-0.13811 0.6547,0.32836 0.97046,1.53576 0.17195,0.65749 0.35534,1.11255 0.43735,1.0852 0.13214,-0.044 0.61259,-2.899 0.51646,-3.06894 -0.0242,-0.0429 0.0995,-0.21289 0.2751,-0.37782 l 0.31919,-0.29986 0.38428,0.36816 c 0.2286,0.21902 0.41428,0.55486 0.45834,0.82903 0.0407,0.25347 0.21737,0.93947 0.39252,1.52443 0.29523,0.98599 0.50855,1.29493 0.62309,0.90243 0.20357,-0.69762 0.34862,-2.3008 0.37033,-4.09315 0.0256,-2.11458 0.0275,-2.12723 0.31905,-2.14193 0.34132,-0.0172 0.93143,0.61364 0.93143,0.9957 0,0.42355 0.36162,1.14623 0.57355,1.14623 0.23648,0 0.24235,-0.0393 0.27923,-1.86931 0.0398,-1.97466 0.27754,-3.41632 0.56337,-3.41632 0.24683,0 0.99691,0.39071 1.21704,0.63394 0.4409,0.4872 0.60918,0.34851 0.57367,-0.47279 -0.0176,-0.4077 0.017,-0.88631 0.077,-1.06357 0.14758,-0.43624 0.20648,-1.27258 0.24191,-3.43501 0.018,-1.09932 0.0866,-1.8929 0.17281,-1.99823 0.12644,-0.15452 0.2316,-1.10057 0.18561,-1.66975 -0.009,-0.11323 -0.12029,-0.32539 -0.24697,-0.47146 -0.12668,-0.14605 -0.36282,-0.74956 -0.52475,-1.34113 -0.59236,-2.16391 -0.69108,-2.43514 -0.93356,-2.56492 -0.13482,-0.0722 -0.24513,-0.20718 -0.24513,-0.30005 0,-0.21738 -0.44509,-0.62317 -0.5588,-0.50947 -0.0477,0.0477 -0.27501,0.0999 -0.50521,0.11603 -0.82607,0.058 -1.38935,0.38426 -2.12085,1.22865 -0.79118,0.91325 -1.15011,1.27649 -1.26135,1.27649 -0.0406,0 -0.24614,0.19631 -0.4568,0.43622 -0.33446,0.38093 -1.10209,0.73486 -1.00009,0.46112 0.0577,-0.15481 1.39508,-1.54193 1.48665,-1.54193 0.16444,0 0.67783,-0.56664 0.67783,-0.74812 0,-0.15015 -0.1268,-0.1707 -0.63629,-0.10311 -0.34996,0.0464 -0.79956,0.16957 -0.99911,0.27364 -0.19955,0.10409 -0.63047,0.18961 -0.95759,0.19004 -0.32712,0 -0.90725,0.0661 -1.28918,0.1459 -0.38192,0.0798 -1.50659,0.16524 -2.49926,0.18988 -2.21649,0.055 -5.04593,0.27842 -5.33168,0.42101 -0.11648,0.0581 -0.52511,0.11961 -0.90807,0.13664 -0.38295,0.017 -0.83633,0.0842 -1.0075,0.14931 -0.17118,0.0651 -0.6124,0.11832 -0.98051,0.11832 -0.3681,0 -0.87193,0.0618 -1.11963,0.13723 -0.39804,0.1213 -4.03992,0.25654 -6.48772,0.24091 -0.48613,-0.003 -0.96121,0.0613 -1.06049,0.14364 -0.11103,0.0922 -0.41535,0.1218 -0.79529,0.0775 -0.33849,-0.0395 -1.267424,-0.13069 -2.064274,-0.20269 -0.79686,-0.072 -1.79146,-0.21971 -2.21022,-0.32822 -0.41876,-0.10851 -0.96348,-0.1973 -1.21049,-0.1973 -0.2994,0 -0.50806,-0.084 -0.62598,-0.25203 -0.16152,-0.23016 -0.24959,-0.24112 -1.01483,-0.12628 -0.96408,0.14469 -1.521338,0.15226 -1.725988,0.0234 -0.0788,-0.0496 -0.33186,-0.1028 -0.56231,-0.11819 -0.55873,-0.0373 -0.57232,0.34224 -0.021,0.58628 0.2189,0.0969 0.58148,0.37947 0.80574,0.62797 0.22427,0.24849 0.610798,0.59024 0.858968,0.75945 0.24816,0.1692 0.77028,0.56869 1.16026,0.88776 0.38997,0.31907 0.91209,0.69031 1.16026,0.82496 0.24816,0.13466 0.65426,0.4577 0.90242,0.71788 0.38826,0.40706 1.83213,1.22547 2.16201,1.22547 0.0605,0 0.36294,0.12216 0.67199,0.27149 0.43737,0.21131 0.78699,0.2682 1.577404,0.25665 0.55851,-0.008 1.57833,0.0983 2.26626,0.23656 2.09614,0.42132 6.79502,0.32872 7.69034,-0.15154 0.1453,-0.0779 0.7863,-0.25241 1.42444,-0.38772 0.63814,-0.13531 1.39231,-0.30032 1.67593,-0.36668 0.28362,-0.0664 0.92176,-0.18561 1.4181,-0.26498 0.49633,-0.0794 1.11766,-0.2525 1.38073,-0.38472 0.26307,-0.13222 0.55628,-0.2404 0.65158,-0.2404 0.0953,0 0.44601,-0.17297 0.77936,-0.38437 0.33335,-0.2114 0.91033,-0.48375 1.28219,-0.60521 0.66502,-0.21723 2.09758,-0.99892 2.23342,-1.2187 0.0382,-0.0617 0.1475,-0.11225 0.24301,-0.11225 0.1349,0 0.14297,0.065 0.0362,0.29133 -0.16062,0.34036 -1.00742,0.89616 -1.72258,1.13064 -0.27536,0.0903 -0.62863,0.24737 -0.78505,0.34908 -0.15642,0.10172 -0.34009,0.15053 -0.40817,0.10845 -0.17481,-0.10804 -0.77561,0.14161 -1.29601,0.53855 -0.6782,0.51728 -3.06324,1.28005 -4.48086,1.43304 -0.28982,0.0313 -0.30758,0.51189 -0.0538,1.45484 0.55555,2.06394 0.89091,2.66971 1.78326,3.22122 0.32162,0.19876 0.42119,0.3502 0.42119,0.64058 0,0.54938 -0.30874,0.59632 -0.84211,0.12803 -0.25082,-0.22023 -0.54625,-0.40042 -0.6565,-0.40042 -0.11025,0 -0.29678,-0.11099 -0.4145,-0.24663 -0.27788,-0.3202 -0.79417,-0.47856 -0.79417,-0.24359 0,0.33004 0.54498,1.20408 1.11942,1.79529 0.52825,0.54369 0.56407,0.6201 0.40788,0.8702 -0.32375,0.5184 -0.57423,0.39375 -1.52144,-0.75708 -0.4813,-0.58478 -0.6605,-0.39922 -0.28963,0.29988 0.15875,0.29925 0.31435,0.71675 0.34577,0.92779 0.18838,1.26499 0.84671,3.25929 1.24952,3.7852 0.12952,0.16908 0.23734,0.45915 0.23959,0.64458 0.004,0.36698 0.26405,0.78835 0.48566,0.78835 0.0765,0 0.17533,-0.27556 0.21969,-0.61236 0.14998,-1.13873 0.20395,-1.28103 0.59574,-1.5707 0.21506,-0.15899 0.4076,-0.26947 0.42788,-0.24551 0.14403,0.17029 0.32962,0.64762 0.32962,0.84777 0,0.13255 0.13715,0.52795 0.30479,0.87867 0.16763,0.35071 0.53021,1.21745 0.80573,1.92608 0.34384,0.88434 0.5729,1.30195 0.73034,1.33159 0.21411,0.0403 0.2236,-0.0721 0.1425,-1.68826 -0.0595,-1.18502 -0.0431,-1.75848 0.0518,-1.81713 0.31363,-0.19383 1.18783,1.00512 1.18783,1.62909 0,0.45274 0.3748,1.64596 0.66739,2.12472 0.30725,0.50275 0.58675,0.53901 0.69926,0.0907 z m 1.45978,-20.08336 c 0.32843,-0.36167 0.39912,-0.40625 0.39246,-0.24749 -0.002,0.0532 -0.16176,0.20806 -0.35452,0.34418 l -0.35047,0.24748 z m 5.74802,-0.47392 c -0.12709,-0.24771 -0.36794,-0.61437 -0.53522,-0.8148 -0.34818,-0.41716 -0.40959,-0.98922 -0.1062,-0.98922 0.11337,0 0.3101,0.26164 0.46043,0.61236 0.14435,0.3368 0.35424,0.71379 0.46642,0.83776 0.15468,0.17094 0.17275,0.29532 0.0748,0.51484 -0.12595,0.28227 -0.1349,0.27827 -0.36023,-0.16094 z m -54.368192,6.02774 c 0.0729,-0.0886 0.16282,-0.35495 0.19976,-0.59181 0.0725,-0.46484 0.41015,-0.92298 0.68023,-0.92298 0.0922,0 0.31257,0.14504 0.48983,0.3223 0.65702,0.65702 1.90614,0.18657 2.80403,-1.05604 0.23685,-0.32779 0.72906,-0.90609 1.0938,-1.28512 0.36474,-0.37902 0.6965,-0.77599 0.73723,-0.88215 0.1075,-0.28012 -0.51551,-0.25395 -0.67346,0.0283 -0.10616,0.1897 -0.16753,0.19792 -0.4297,0.0576 -0.25381,-0.13584 -0.37092,-0.12975 -0.68829,0.0357 -0.21035,0.10968 -0.45575,0.19978 -0.54534,0.20021 -0.0896,0 -0.27245,0.0692 -0.40634,0.15283 -0.1951,0.12184 -0.30996,0.10845 -0.57838,-0.0674 -0.56356,-0.36926 -0.43785,-0.71882 0.54824,-1.5244 0.48574,-0.39684 1.05137,-0.96705 1.25695,-1.26715 0.20557,-0.30011 0.63482,-0.85196 0.9539,-1.22635 0.31907,-0.37441 0.71167,-0.83791 0.87244,-1.03001 0.25824,-0.30856 0.70649,-1.01303 1.66705,-2.61991 0.15589,-0.26078 0.3444,-0.61918 0.41891,-0.79644 0.23238,-0.55284 0.3496,-0.70767 0.56842,-0.75072 0.15912,-0.0313 0.21179,0.0557 0.21179,0.34998 0,0.44862 0.37516,0.74753 0.62484,0.49784 0.0818,-0.0818 0.14867,-0.22639 0.14867,-0.32139 0,-0.095 0.11458,-0.39732 0.25461,-0.67182 0.25766,-0.50504 0.46034,-1.18983 0.63284,-2.13818 0.12913,-0.70984 0.22726,-0.83324 0.66264,-0.83324 0.43524,0 0.64151,0.29487 0.64151,0.91709 0,0.5473 0.50926,2.04802 0.69498,2.04802 0.0795,0 0.2191,-0.18854 0.31027,-0.41899 0.0912,-0.23044 0.27848,-0.63196 0.41624,-0.89229 0.13777,-0.26032 0.3725,-0.81145 0.52164,-1.22472 0.14913,-0.41327 0.35053,-0.92888 0.44756,-1.14578 0.097,-0.2169 0.14161,-0.52741 0.0991,-0.69001 -0.0482,-0.18415 -0.01,-0.33855 0.10232,-0.4094 0.26569,-0.16824 0.76158,-0.14164 0.81006,0.0435 0.13978,0.53367 0.37273,1.23178 0.49307,1.47769 l 0.13957,0.28519 0.38083,-0.27118 c 0.33235,-0.23665 0.85075,-0.91881 1.51459,-1.99301 0.33582,-0.54342 1.031338,-0.56399 1.031338,-0.0305 0,0.14228 0.0627,0.37587 0.13935,0.51908 0.1316,0.2459 0.16566,0.22945 0.61236,-0.29565 0.26016,-0.30581 0.56003,-0.64611 0.66639,-0.75621 0.10635,-0.11011 0.27653,-0.35953 0.37817,-0.55428 0.35327,-0.6769 1.16884,-0.53894 1.16884,0.19772 0,0.13076 0.0886,0.3729 0.1968,0.53809 0.14425,0.22015 0.1643,0.38587 0.0751,0.62054 -0.12502,0.32883 0.0567,0.8953 0.29668,0.92488 0.20272,0.025 0.95167,-1.5059 1.03137,-2.10816 0.0419,-0.31659 0.15825,-0.65769 0.25856,-0.75799 0.28982,-0.28982 0.77079,-0.0905 0.95193,0.3945 0.22987,0.61548 1.05532,1.47162 1.19948,1.24408 0.0614,-0.0968 0.11243,-0.25498 0.11351,-0.35143 0.004,-0.32547 0.813714,-1.43611 1.047424,-1.43611 0.33028,0 0.36391,0.10726 0.42428,1.3534 0.0462,0.95321 0.21367,1.55796 0.37257,1.34528 0.023,-0.0307 0.21835,-0.28791 0.43421,-0.57153 0.21586,-0.28362 0.42958,-0.66071 0.47494,-0.83797 0.15551,-0.60771 0.28547,-0.712 0.66935,-0.53709 0.29839,0.13595 0.33535,0.21366 0.27243,0.5728 -0.23917,1.36531 -0.2849,1.76914 -0.20035,1.76914 0.15347,0 0.77048,-1.18451 0.87231,-1.6746 0.11029,-0.53082 0.33105,-0.60725 1.11778,-0.38698 0.58616,0.16412 0.70001,0.34533 0.70332,1.11932 10e-4,0.22626 0.054,0.44366 0.11784,0.48311 0.1299,0.0803 0.56826,-0.70026 0.70558,-1.25633 0.0743,-0.30067 0.13769,-0.34714 0.37513,-0.27482 0.15717,0.0479 0.37736,0.16719 0.4893,0.26516 0.27909,0.24426 0.33427,0.2251 0.32238,-0.11194 -0.008,-0.21935 0.071,-0.29951 0.32309,-0.32881 0.3994,-0.0464 0.57685,0.146 0.88624,0.96108 0.12836,0.33815 0.28801,0.63303 0.35479,0.65528 0.0668,0.0223 0.33829,-0.4284 0.60337,-1.00146 0.26509,-0.57307 0.56735,-1.0747 0.67171,-1.11475 0.23403,-0.0898 0.6958,0.30812 0.6958,0.5996 0,0.27269 0.77736,1.29264 0.9852,1.29264 0.0929,0 0.19226,-0.28612 0.24445,-0.70384 0.11579,-0.9268 0.31336,-1.20297 0.72606,-1.01493 0.22161,0.10098 0.35496,0.32348 0.47533,0.79315 0.092,0.35904 0.2567,0.72698 0.36594,0.81764 0.16731,0.13886 0.24695,0.10446 0.50503,-0.21811 0.16852,-0.21063 0.30671,-0.47974 0.30706,-0.59803 0.001,-0.38275 0.15174,-0.6229 0.39064,-0.6229 0.35362,0 0.64134,0.13855 0.64134,0.30883 0,0.46282 0.90573,1.6646 1.10464,1.4657 0.0311,-0.0311 0.1191,-0.39964 0.19547,-0.81889 0.0764,-0.41924 0.18633,-0.81154 0.24436,-0.87176 0.25398,-0.26357 0.70388,0.14182 1.49141,1.34385 0.46108,0.70375 0.89484,1.27955 0.96391,1.27955 0.10687,0 0.19391,-0.77548 0.13916,-1.23976 -0.027,-0.22854 0.33857,-0.46453 0.59397,-0.38347 0.12824,0.0407 0.41843,0.46609 0.64486,0.9453 0.40915,0.86591 1.35311,2.09602 1.60845,2.09602 0.0806,0 0.10281,-0.16612 0.0561,-0.41898 -0.31658,-1.71266 -0.34306,-2.08121 -0.16254,-2.26174 0.26103,-0.26103 0.69108,-0.082 0.93467,0.389 0.11298,0.21851 0.3589,0.52709 0.54648,0.68573 0.42507,0.35951 1.16057,1.01056 1.50131,1.3289 0.14181,0.13249 0.46088,0.34269 0.70905,0.46709 0.51747,0.25941 1.16026,0.82624 1.16026,1.02315 0,0.21204 1.5829,1.75194 1.80112,1.75217 0.1084,1.3e-4 0.51616,0.22672 0.90615,0.50355 1.05306,0.74755 2.72779,1.55704 3.34918,1.61885 0.30069,0.0299 0.55484,0.0722 0.56477,0.0939 0.20909,0.45801 0.35856,0.56177 0.9011,0.62553 0.67147,0.0789 0.90296,0.24215 0.83605,0.58957 -0.0772,0.40074 -0.58387,0.56814 -1.08539,0.3586 -0.55005,-0.22982 -0.92773,-0.22731 -1.38114,0.009 -0.21388,0.11157 -0.51559,0.15715 -0.74128,0.11202 -0.23798,-0.0476 -0.3806,-0.0227 -0.3806,0.0664 0,0.0784 0.15953,0.1737 0.35452,0.21171 0.19499,0.038 0.62337,0.15516 0.95196,0.2603 0.32859,0.10513 0.77819,0.19116 0.99911,0.19116 0.61686,0 0.548,0.43102 -0.0999,0.62514 -0.40601,0.12163 -0.65267,0.11155 -1.29476,-0.053 -0.43626,-0.11176 -0.84824,-0.1847 -0.91553,-0.16209 -0.17529,0.0589 0.34928,0.87383 0.61767,0.95956 0.12368,0.0395 0.3409,0.12107 0.48271,0.18127 0.14181,0.0602 0.75094,0.2029 1.35364,0.31707 0.60269,0.11418 1.27799,0.26416 1.50066,0.3333 0.3671,0.11398 0.45397,0.0816 0.93114,-0.34675 0.28946,-0.25983 0.49341,-0.52564 0.45323,-0.59065 -0.0767,-0.12414 -0.27568,-1.20534 -0.39253,-2.13319 -0.0546,-0.43355 -0.0243,-0.5641 0.1461,-0.62948 0.33938,-0.13024 0.81159,0.20312 1.01781,0.71852 0.21124,0.52793 0.52142,0.84271 0.71344,0.72404 0.14218,-0.0879 -0.0438,-0.74608 -0.3291,-1.16496 -0.0953,-0.13987 -0.17528,-0.45894 -0.17779,-0.70905 -0.003,-0.25012 -0.0847,-0.59963 -0.18273,-0.77668 -0.19209,-0.34709 -0.0664,-0.64496 0.27208,-0.64496 0.25841,0 0.83346,0.3798 1.16061,0.76655 0.15318,0.18108 0.3218,0.28633 0.3747,0.23387 0.13276,-0.13163 -0.30068,-2.04203 -0.51851,-2.28536 -0.23197,-0.25911 -0.29497,-1.21601 -0.0959,-1.45592 0.22863,-0.27548 0.78574,-0.12917 0.87589,0.23002 0.0929,0.37001 0.45775,0.69914 1.25954,1.13613 l 0.62725,0.34185 -0.0872,-0.35377 c -0.0479,-0.19457 -0.1166,-0.52781 -0.15259,-0.74052 -0.036,-0.21271 -0.11545,-0.50278 -0.17658,-0.64459 -0.0611,-0.14181 -0.17539,-0.46837 -0.2539,-0.72569 -0.0785,-0.25732 -0.2566,-0.57088 -0.39574,-0.6968 -0.20357,-0.18423 -0.25298,-0.39822 -0.25298,-1.0956 0,-1.38651 0.16229,-1.39437 1.49614,-0.0725 0.61491,0.60941 1.22599,1.10801 1.35796,1.10801 0.13196,0 0.27949,0 0.32783,-0.001 0.19128,-0.002 0.009,-1.5346 -0.29019,-2.43547 -0.17408,-0.5247 -0.34953,-1.19185 -0.38988,-1.48256 -0.0403,-0.29071 -0.13716,-0.69646 -0.21514,-0.90167 -0.12431,-0.32709 -0.10535,-0.40263 0.15366,-0.61236 0.43312,-0.35072 0.64676,-0.29969 1.25842,0.30061 0.30255,0.29692 0.58832,0.50162 0.63505,0.45489 0.0467,-0.0467 0.0165,-0.39119 -0.0673,-0.76547 -0.0837,-0.37427 -0.16426,-1.08658 -0.17896,-1.58292 -0.0187,-0.63335 -0.1132,-1.07792 -0.31677,-1.49103 -0.35256,-0.71541 -0.37319,-1.22715 -0.0563,-1.39674 0.35361,-0.18925 0.7912,0.0977 1.10517,0.72481 0.44004,0.87886 0.63082,0.66455 0.28385,-0.31886 -0.23771,-0.67375 -0.49425,-2.75754 -0.44041,-3.57732 0.0406,-0.61777 0.0581,-0.64459 0.42142,-0.64459 0.35068,0 0.39581,0.0564 0.60243,0.75239 0.20504,0.69068 0.59268,1.32609 0.72704,1.19173 0.0306,-0.0306 -0.0321,-0.36456 -0.13944,-0.74207 -0.10732,-0.37751 -0.23458,-1.18202 -0.28279,-1.78781 -0.0727,-0.91283 -0.0534,-1.12988 0.11255,-1.26759 0.3442,-0.28566 0.63774,-0.1046 1.01997,0.62915 0.69279,1.32994 0.70587,1.24208 0.3982,-2.67556 -0.0726,-0.92408 -0.0564,-1.06358 0.12289,-1.06358 0.11352,0 0.39151,0.23033 0.61774,0.51185 0.22623,0.28151 0.45982,0.48187 0.51909,0.44524 0.0593,-0.0366 0.0926,-0.72701 0.0741,-1.53417 -0.0269,-1.17354 -0.078,-1.51661 -0.25518,-1.71234 -0.12184,-0.13439 -0.22152,-0.3654 -0.22152,-0.51312 0,-0.21326 0.10713,-0.28668 0.52013,-0.35645 0.62748,-0.10602 0.84012,0.0387 0.95478,0.64993 0.0901,0.48032 0.27186,0.58653 0.3782,0.22101 0.0361,-0.12408 0.0588,-0.71871 0.0505,-1.3214 -0.008,-0.60269 0.0502,-1.38587 0.13003,-1.7404 0.29283,-1.30051 0.43766,-2.48669 0.49581,-4.06091 0.0327,-0.88631 0.10065,-2.1916 0.15089,-2.90065 0.0886,-1.2509 0.10092,-1.2903 0.41365,-1.32686 0.3065,-0.0358 0.32411,-0.0832 0.3592,-0.96689 0.0203,-0.51106 0.0894,-1.13225 0.15351,-1.38041 0.0641,-0.24817 0.14846,-0.8283 0.1874,-1.28918 0.0389,-0.46088 0.10697,-1.27307 0.1512,-1.80485 0.0442,-0.53179 0.0917,-1.85018 0.1056,-2.92976 0.0139,-1.07957 0.0599,-1.99759 0.10237,-2.04004 0.13944,-0.13943 0.25593,1.78995 0.1795,2.97285 -0.1464,2.26584 -0.22769,3.35739 -0.28793,3.86626 -0.35595,3.00682 -0.4073,4.02118 -0.41443,8.18628 -0.0136,7.94529 -0.0269,8.80228 -0.15565,10.0556 -0.21129,2.05611 -0.23305,2.25606 -0.24552,2.25606 -0.007,0 -0.043,0.58013 -0.0808,1.28918 -0.0378,0.70905 -0.1261,1.63726 -0.19619,2.06269 -0.30546,1.85423 -0.36136,2.55436 -0.22436,2.81035 0.0759,0.14182 0.10417,0.50467 0.0628,0.80633 -0.11888,0.86737 0.0674,0.90179 1.40298,0.25927 1.58926,-0.76454 3.52233,-2.36266 4.27067,-3.53069 0.24176,-0.37734 0.66546,-0.97186 0.94155,-1.32114 0.57912,-0.73264 0.95023,-1.64678 1.24101,-3.0569 0.11285,-0.54726 0.25029,-1.05303 0.30542,-1.12394 0.18034,-0.23191 0.66093,-1.6429 0.63194,-1.85531 -0.0156,-0.11406 0.0105,-0.49744 0.0579,-0.85196 0.1136,-0.84996 0.24497,-4.52005 0.27688,-7.73508 0.0141,-1.41809 0.0642,-3.15849 0.11137,-3.86753 0.0472,-0.70905 0.1179,-2.47845 0.15713,-3.932 0.0857,-3.1729 0.30165,-5.0852 0.6872,-6.08411 0.0737,-0.19099 0.14815,-0.78927 0.1654,-1.3295 0.0172,-0.54023 0.0729,-1.00791 0.12365,-1.03928 0.10273,-0.0635 0.23313,-0.78304 0.26709,-1.47379 0.0122,-0.24816 0.0691,-0.51422 0.12655,-0.59124 0.0574,-0.077 0.21915,-0.71065 0.35944,-1.40808 0.23734,-1.17983 0.24068,-1.2984 0.0481,-1.70433 -0.29781,-0.62759 -0.98441,-1.1077 -1.63926,-1.14628 -0.29884,-0.0176 -0.59828,-0.0456 -0.66544,-0.0622 -0.23462,-0.058 -1.15507,0.17622 -1.34682,0.34267 -0.10636,0.0923 -0.22239,0.16792 -0.25784,0.16798 -0.0354,7e-5 -0.22777,0.0622 -0.42738,0.13811 -0.1996,0.0759 -0.40264,0.13959 -0.45121,0.14157 -0.0486,0.002 -0.31618,0.17601 -0.5947,0.38675 -0.27853,0.21074 -0.58526,0.38317 -0.68163,0.38317 -0.0964,0 -0.41961,0.24655 -0.71831,0.5479 -0.2987,0.30134 -0.81531,0.76659 -1.14802,1.03388 -0.3327,0.26729 -0.84032,0.72612 -1.12803,1.01963 -0.48146,0.49116 -0.52387,0.59103 -0.53266,1.25441 -0.0108,0.81287 -0.19729,2.01846 -0.25112,1.62319 -0.0193,-0.14181 -0.0461,-0.5479 -0.0595,-0.90243 -0.0134,-0.35452 -0.0915,-1.1335 -0.17366,-1.73106 -0.12618,-0.9182 -0.1203,-1.11853 0.038,-1.29343 0.15265,-0.16867 0.18845,-0.7904 0.19357,-3.36119 0.003,-1.73483 0.0126,-3.90841 0.0203,-4.83018 0.008,-0.92176 -0.0592,-2.69116 -0.14865,-3.93199 -0.0895,-1.24084 -0.18435,-2.66216 -0.21087,-3.15849 -0.0678,-1.26977 -0.39394,-4.29697 -0.48979,-4.54676 -0.044,-0.11468 -0.10649,-0.79195 -0.13884,-1.50504 -0.15246,-3.35985 -1.06741,-9.35727 -1.53682,-10.07367 -0.10085,-0.15393 -0.20843,-0.56586 -0.23905,-0.9154 -0.0306,-0.34954 -0.14223,-0.80627 -0.24802,-1.01496 -0.10579,-0.20869 -0.23217,-0.59933 -0.28085,-0.8681 -0.0487,-0.26877 -0.20147,-0.75219 -0.33952,-1.07426 -0.13806,-0.32208 -0.25102,-0.75664 -0.25102,-0.9657 0,-0.21895 -0.082,-0.41158 -0.19337,-0.45432 -0.11839,-0.0454 -0.19338,-0.24089 -0.19338,-0.50402 0,-0.23639 -0.058,-0.46566 -0.12892,-0.50948 -0.0709,-0.0438 -0.12891,-0.22333 -0.12891,-0.398902 0,-0.17557 -0.092,-0.45966 -0.20449,-0.63131 -0.11247,-0.17165 -0.17099,-0.3663 -0.13004,-0.43256 0.0752,-0.12171 -0.41321,-1.37057 -1.09178,-2.79153 -0.20316,-0.42543 -0.64983,-1.06357 -0.9926,-1.41809 -0.34277,-0.35453 -0.7598,-0.84764 -0.92673,-1.09581 -0.47652,-0.70838 -1.5564,-1.78467 -2.26229,-2.25477 -0.71345,-0.47513 -1.30144,-0.75574 -2.83619,-1.35356 -0.56724,-0.22095 -1.14737,-0.45536 -1.28918,-0.52091 -1.04982,-0.48525 -3.57254,-1.02819 -6.31698,-1.35953 -0.99266,-0.11985 -1.94988,-0.28954 -2.12714,-0.37709 -1.1791,-0.58234 -3.28551,-0.72762 -10.31343,-0.71133 -2.95931,0.007 -4.46308,-0.0441 -5.54346,-0.18778 -2.07033,-0.27536 -3.62863,-0.44011 -4.83442,-0.51111 -1.39357,-0.082 -2.93053,-0.36473 -3.30362,-0.60759 -0.16834,-0.10959 -0.52382,-0.23968 -0.78993,-0.28908 -0.26612,-0.0494 -0.87526,-0.25569 -1.35364,-0.45841 -0.47838,-0.20273 -1.13085,-0.43366 -1.44992,-0.51318 -0.31907,-0.0795 -0.98622,-0.33919 -1.48255,-0.57704 -0.49634,-0.23785 -1.16349,-0.53401 -1.48256,-0.65813 -0.31907,-0.12413 -0.991114,-0.41816 -1.493444,-0.6534 -0.50231,-0.23524 -1.22748,-0.55062 -1.61147,-0.70084 -0.38399,-0.15022 -0.98823,-0.41055 -1.34276,-0.5785 -0.76623,-0.36299 -1.93218,-0.79745 -2.39207,-0.89134 -0.18117,-0.037 -0.58726,-0.24199 -0.90243,-0.45558 -0.31517,-0.21358 -0.776078,-0.42592 -1.024248,-0.47187 -0.24816,-0.046 -0.50922,-0.12681 -0.58013,-0.17969 -0.32358,-0.24132 -4.75776,-0.20125 -5.98225,0.0541 -0.97999,0.20434 -3.19694,1.19753 -3.62212,1.62272 -0.0354,0.0354 -0.41254,0.24614 -0.83797,0.46818 -1.79832,0.93861 -2.84393,1.50846 -2.95867,1.61244 -0.0674,0.061 -0.20309,0.11099 -0.30163,0.11099 -0.0985,0 -0.50461,0.29006 -0.90238,0.64459 -0.39776,0.35452 -0.78433,0.64459 -0.85904,0.64459 -0.0747,0 -0.30204,0.17609 -0.50518,0.39132 -0.20314,0.21523 -0.5295,0.47414 -0.72524,0.57536 -0.19574,0.10122 -0.39111,0.27583 -0.43415,0.38801 -0.043,0.11218 -0.29664,0.29482 -0.56353,0.40587 -0.77498,0.32245 -2.8776,2.22556 -3.36069,3.04179 -0.11545,0.19508 -0.31363,0.38761 -0.44038,0.42784 -0.12676,0.0402 -0.30275,0.20824 -0.39109,0.37335 -0.0883,0.16511 -0.34885,0.52371 -0.57891,0.79688 -0.23006,0.27318 -0.68247,0.84476 -1.00535,1.27019 -0.32289,0.42543 -0.65678,0.86127 -0.74198,0.96854 -0.0852,0.10727 -0.32567,0.55804 -0.53437,1.00171 -0.20871,0.44367 -0.48427,0.90151 -0.61236,1.01744 -0.1281,0.11592 -0.2329,0.2875 -0.2329,0.3813 0,0.0938 -0.14044,0.47639 -0.3121,0.85022 -0.49911,1.08694 -1.12642,2.71119 -1.19948,3.10574 -0.037,0.19986 -0.17615,0.43136 -0.3092,0.51445 -0.13305,0.0831 -0.2419,0.258472 -0.2419,0.389742 0,0.13126 -0.1193,0.39287 -0.2651,0.58135 -0.1458,0.18847 -0.40141,0.54573 -0.56801,0.79389 -0.27472,0.40922 -0.43302,0.71542 -1.23302,2.38498 -0.1359,0.28362 -0.34506,0.95077 -0.4648,1.48256 -0.11975,0.53179 -0.31226,1.11192 -0.42781,1.28918 -0.11555,0.17726 -0.34337,0.67037 -0.50626,1.0958 -0.34722,0.90681 -0.42404,1.09563 -0.76058,1.86931 -0.35741,0.82166 -1.13832,3.1677 -1.30882,3.932 -0.0791,0.35452 -0.25597,1.31174 -0.39308,2.12714 -0.1371,0.81541 -0.34291,1.91766 -0.45736,2.44944 -0.11444,0.53179 -0.17645,1.12645 -0.13778,1.32147 0.0387,0.19502 0.006,0.51409 -0.0731,0.70904 -0.0789,0.19496 -0.18984,0.78957 -0.24658,1.32136 -0.18623,1.74524 -0.5122,3.79881 -0.63921,4.02693 -0.0686,0.12312 -0.12464,0.43057 -0.12464,0.68322 0,0.25265 -0.0834,0.6207 -0.18539,0.81788 -0.10259,0.19838 -0.2153,0.90086 -0.25235,1.57284 -0.0864,1.5677 -0.20934,2.46409 -0.36471,2.6602 -0.0687,0.0867 -0.0846,0.39085 -0.0355,0.68128 0.0608,0.36019 0.035,0.58924 -0.0826,0.7309 -0.12625,0.15212 -0.18166,0.87061 -0.21093,2.73505 -0.0465,2.95962 -0.041,3.75832 0.0266,3.86763 0.0964,0.1559 -0.18105,3.14294 -0.30585,3.29331 -0.0833,0.10038 -0.0784,0.6811 0.0142,1.6923 0.0776,0.84672 0.13943,1.68451 0.1375,1.86178 -0.008,0.7551 0.25253,3.84044 0.35954,4.25429 0.0642,0.24816 0.1471,0.79929 0.18429,1.22472 0.21623,2.47357 0.27654,2.98104 0.372,3.13031 0.0581,0.0909 0.12807,0.40993 0.15548,0.70905 0.14212,1.55089 0.18672,1.89232 0.33626,2.5743 0.0942,0.42972 0.23161,0.74128 0.32687,0.74128 0.25307,0 0.28083,0.33061 0.33657,4.00982 0.0286,1.88632 0.1014,3.50967 0.16182,3.60743 0.12855,0.20801 0.12537,0.18894 0.3104,1.85822 0.0786,0.70905 0.23597,1.63725 0.34972,2.06268 0.11376,0.42543 0.23059,0.97656 0.25964,1.22472 0.11138,0.95167 0.15332,1.03135 0.54275,1.03135 0.37873,0 0.6141,0.35464 0.6417,0.96688 0.15818,3.50824 0.20642,3.91491 0.46729,3.939 0.1324,0.0122 0.66349,-1.65435 0.78128,-2.4517 0.11958,-0.80943 0.61647,-0.8532 0.67251,-0.0592 0.0196,0.27814 0.0997,0.63197 0.17785,0.78628 0.0997,0.19677 0.10594,0.61841 0.0209,1.41173 -0.0667,0.62214 -0.0777,1.39509 -0.0244,1.71766 0.0533,0.32257 0.10032,0.92388 0.10455,1.33625 0.004,0.41236 0.073,0.8717 0.15272,1.02075 0.14482,0.27059 0.14529,0.27053 0.31773,-0.0407 0.095,-0.17143 0.17475,-0.46608 0.17726,-0.65476 0.005,-0.37818 0.70336,-1.07197 0.93493,-0.92885 0.0901,0.0557 0.10064,0.4311 0.0316,1.12889 -0.0569,0.575 -0.0921,1.3156 -0.0782,1.6458 0.0138,0.33019 -0.037,0.87775 -0.11299,1.2168 -0.14797,0.66027 -0.0366,3.05683 0.13701,2.94951 0.1315,-0.0813 0.89709,-1.72194 0.89709,-1.92248 0,-0.27084 0.59275,-0.72687 0.98102,-0.75475 l 0.37261,-0.0268 -0.0253,1.09581 c -0.0139,0.60269 -0.0567,1.89808 -0.0952,2.87865 -0.0533,1.35855 -0.0329,1.77054 0.0854,1.7311 0.0854,-0.0285 0.25799,-0.40047 0.3835,-0.82666 0.23074,-0.78351 0.61943,-1.299 0.86501,-1.14723 0.0752,0.0465 0.13647,0.5745 0.13973,1.20513 0.003,0.61728 0.007,1.71698 0.009,2.44375 0.002,0.80644 0.0546,1.32141 0.13456,1.32141 0.14495,0 0.73856,-0.65945 0.9745,-1.08259 0.0831,-0.14908 0.12055,-0.42474 0.0832,-0.61259 -0.0529,-0.2659 -0.009,-0.36029 0.19852,-0.42612 0.32878,-0.10436 0.7919,0.12704 0.7919,0.39567 0,1.51699 0.16173,4.13054 0.2618,4.23061 0.19438,0.19438 0.76743,-0.1982 1.22251,-0.8375 0.45884,-0.64459 0.72465,-0.83544 1.01071,-0.72568 0.18191,0.0698 0.20165,0.28081 0.14967,1.59977 -0.0752,1.90877 -0.17958,2.97551 -0.3315,3.38865 -0.18349,0.49899 -0.20332,1.19054 -0.0358,1.25002 0.0826,0.0293 0.19249,-0.0804 0.24416,-0.24381 0.0517,-0.16343 0.24513,-0.49472 0.42992,-0.73619 0.18479,-0.24147 0.39581,-0.64756 0.46894,-0.90242 0.0876,-0.30538 0.25581,-0.52235 0.49321,-0.63626 0.19813,-0.0951 0.38675,-0.14636 0.41914,-0.11398 0.0498,0.0499 0.14099,1.801 0.17094,3.28418 0.009,0.43767 0.14228,0.53135 0.36731,0.25784 z m 31.202042,-20.08392 c -0.40317,-0.0619 -1.07869,-0.2022 -1.50116,-0.31167 -0.42248,-0.10948 -0.9193,-0.19904 -1.10405,-0.19904 -0.18476,0 -0.44888,-0.11297 -0.58695,-0.25104 -0.13807,-0.13807 -0.50012,-0.31811 -0.80456,-0.40008 -0.839874,-0.22616 -1.039634,-0.39134 -3.356964,-2.77584 -0.80858,-0.83202 -0.88496,-0.96147 -1.12803,-1.91186 -0.31921,-1.24809 -0.31951,-1.19546 0.008,-1.37066 0.21425,-0.11466 0.31853,-0.0985 0.51567,0.0799 0.13591,0.123 0.24711,0.27885 0.24711,0.34634 0,0.0675 0.23205,0.41416 0.51567,0.77037 0.28362,0.35621 0.51568,0.70658 0.51568,0.77859 0,0.17708 1.16024,1.41361 1.48252,1.57999 0.14182,0.0732 0.26058,0.24727 0.26389,0.38676 0.003,0.13949 0.0814,0.23725 0.17357,0.21724 0.0922,-0.02 0.539134,0.17142 0.993274,0.42539 0.85373,0.47743 2.66097,1.02988 2.97495,0.90939 0.0982,-0.0377 0.41269,0.0251 0.69882,0.13962 0.41339,0.16541 0.82955,0.19516 2.02662,0.1449 1.33156,-0.0559 1.62458,-0.1126 2.52455,-0.48851 1.02257,-0.42712 2.65666,-1.42678 3.35034,-2.04958 0.48651,-0.43679 1.36836,-1.78947 1.36836,-2.09893 0,-0.13331 0.0815,-0.37087 0.18111,-0.52791 0.0996,-0.15704 0.22068,-0.58718 0.26904,-0.95586 0.1059,-0.80732 0.35884,-1.08982 0.68435,-0.76433 0.17453,0.17451 0.21914,0.46093 0.21914,1.40702 0,1.02462 -0.0457,1.2765 -0.33276,1.83249 -0.95743,1.85465 -1.05689,1.97962 -2.37452,2.98349 -0.87234,0.66462 -2.12518,1.33526 -2.49443,1.33526 -0.13515,0 -0.31795,0.087 -0.40622,0.19338 -0.0883,0.10635 -0.2895,0.19337 -0.44719,0.19337 -0.15769,0 -0.45515,0.0813 -0.66103,0.18067 -0.46998,0.22683 -2.83558,0.35156 -3.81464,0.20113 z m 49.78627,-17.20105 c 0,-0.10386 0.13053,-0.25617 0.29006,-0.33845 0.15954,-0.0823 0.43542,-0.30189 0.61308,-0.48798 0.17766,-0.1861 0.49842,-0.4834 0.71281,-0.66066 0.58183,-0.48108 1.44565,-1.68053 1.67171,-2.32125 0.14837,-0.42052 0.17741,-0.80695 0.11358,-1.5113 l -0.0857,-0.94632 -1.04539,-1.06014 c -0.57496,-0.58307 -1.16141,-1.12401 -1.30322,-1.20208 -0.2862,-0.15757 -0.34765,-0.5781 -0.0967,-0.66175 0.0886,-0.0296 0.16115,0.0307 0.16115,0.13393 0,0.10321 0.30457,0.38016 0.67682,0.61545 1.24198,0.78501 2.27949,2.45929 2.10384,3.39508 -0.21921,1.16789 -0.40398,1.78954 -0.54834,1.84494 -0.0933,0.0358 -0.16963,0.17454 -0.16963,0.30831 0,0.22928 -2.77044,3.08106 -2.99319,3.08106 -0.0555,0 -0.10084,-0.085 -0.10084,-0.18884 z M 151.325,160.1878 c -0.21988,-0.41084 -0.089,-0.65248 0.25393,-0.46893 0.29393,0.1573 0.30828,0.2536 0.0836,0.56091 -0.15525,0.21232 -0.17796,0.20612 -0.3375,-0.092 z m -72.362082,-4.66891 c -0.0387,-0.0387 -0.61403,-0.0907 -1.27844,-0.11545 -2.85068,-0.10626 -5.43541,-0.80848 -6.96476,-1.89218 -0.1882,-0.13336 -0.4035,-0.24248 -0.47842,-0.24248 -0.0749,0 -0.44306,-0.24714 -0.81807,-0.54921 -0.37501,-0.30207 -0.84137,-0.6199 -1.03636,-0.70629 -0.19498,-0.0864 -0.35452,-0.2129 -0.35452,-0.28114 0,-0.31539 0.30961,-0.22939 1.1123,0.30894 0.4782,0.32071 0.928,0.58311 0.99955,0.58311 0.0716,0 0.27831,0.13968 0.45945,0.31039 0.65869,0.62075 2.89519,1.62123 3.63235,1.62491 0.16869,9.1e-4 0.6252,0.0863 1.01447,0.18987 0.38927,0.10359 1.08486,0.19872 1.54576,0.2114 0.93141,0.0256 2.64439,0.39315 2.50095,0.53659 -0.10981,0.10981 -0.23774,0.11805 -0.33426,0.0215 z m 0.60758,-0.15412 c 0.22256,-0.21931 0.92084,-0.39927 1.10576,-0.28498 0.26592,0.16435 0.0697,0.27488 -0.61595,0.34697 -0.40706,0.0428 -0.57463,0.0216 -0.48981,-0.062 z m 1.52107,-0.34223 c 0.0256,-0.0767 0.33193,-0.21623 0.6808,-0.31006 1.41919,-0.38171 3.21973,-0.97844 3.59111,-1.19016 0.21729,-0.12387 0.60561,-0.29179 0.86293,-0.37315 0.25732,-0.0814 0.57521,-0.26656 0.70643,-0.41155 0.13121,-0.145 0.44067,-0.34807 0.68769,-0.45128 0.24701,-0.10321 0.53825,-0.26809 0.6472,-0.36641 0.31386,-0.28322 1.68385,-0.97167 1.93359,-0.97167 0.12471,0 0.43428,-0.14083 0.68792,-0.31296 0.39298,-0.26668 0.48375,-0.28574 0.61391,-0.12891 0.20526,0.24732 -0.0595,0.57079 -0.46714,0.57079 -0.1644,0 -0.33164,0.053 -0.37165,0.1177 -0.04,0.0647 -0.30115,0.15629 -0.58031,0.20345 -0.27917,0.0472 -0.57603,0.16824 -0.6597,0.26906 -0.0837,0.10081 -0.21773,0.1833 -0.2979,0.1833 -0.0802,0 -0.43136,0.20304 -0.78042,0.45121 -0.34905,0.24817 -0.71485,0.45121 -0.81288,0.45121 -0.098,0 -0.39735,0.17608 -0.66515,0.39129 -0.2678,0.21521 -0.714,0.45385 -0.99156,0.5303 -0.27755,0.0765 -0.64967,0.24109 -0.82694,0.36584 -0.17726,0.12475 -0.52534,0.25775 -0.7735,0.29555 -0.24817,0.0378 -0.71227,0.15355 -1.03135,0.25723 -1.09298,0.35514 -2.20209,0.57624 -2.15308,0.42922 z m 74.258622,-1.46369 c 0.11727,-0.76182 0.20746,-1.18568 0.47933,-2.25265 0.13954,-0.54763 0.25371,-1.19318 0.25371,-1.43454 0,-0.24136 0.0864,-0.51053 0.19196,-0.59815 0.10558,-0.0876 0.16198,-0.20781 0.12535,-0.26709 -0.0913,-0.14778 0.34576,-1.40369 0.89453,-2.57029 0.31617,-0.67211 0.45537,-0.86862 0.4566,-0.64458 0.001,0.17726 -0.11168,0.46732 -0.25034,0.64458 -0.13866,0.17727 -0.25366,0.38031 -0.25557,0.45122 -0.002,0.0709 -0.14685,0.47699 -0.3221,0.90242 -0.17525,0.42543 -0.32001,0.96284 -0.3217,1.19424 -0.002,0.23141 -0.0581,0.52147 -0.12542,0.64459 -0.14568,0.26652 -0.66101,2.58477 -0.73754,3.31789 -0.0856,0.82017 -0.16606,1.0958 -0.31979,1.0958 -0.093,0 -0.11728,-0.16988 -0.069,-0.48344 z m -21.6224,-0.65773 c -0.0532,-0.0861 0.0747,-0.1073 0.36415,-0.0603 0.33569,0.0545 0.53226,0.005 0.79378,-0.20101 0.19118,-0.15038 0.49181,-0.27342 0.66808,-0.27342 0.32718,0 2.2231,-1.11864 2.2231,-1.31168 0,-0.0585 0.11429,-0.10642 0.25398,-0.10642 0.13968,0 0.38459,-0.17667 0.54423,-0.39259 0.24019,-0.32488 1.69389,-1.47927 3.10784,-2.46795 0.17126,-0.11975 0.40941,-0.42431 0.52923,-0.67682 0.11982,-0.2525 0.27233,-0.45909 0.3389,-0.45909 0.0666,0 0.27755,-0.24656 0.46883,-0.5479 0.19129,-0.30135 0.53431,-0.83895 0.76228,-1.19466 0.47154,-0.7358 0.75229,-1.63503 0.64453,-2.06439 -0.0503,-0.20039 -0.006,-0.31726 0.14121,-0.37381 0.27697,-0.10629 0.43743,0.15926 0.3444,0.56998 -0.13496,0.59594 -0.44798,1.47842 -0.54829,1.54582 -0.0546,0.0367 -0.28883,0.45443 -0.52048,0.92829 -0.23164,0.47386 -0.50214,0.89264 -0.6011,0.93061 -0.099,0.038 -0.17998,0.14338 -0.18004,0.23424 -7e-5,0.0909 -0.22516,0.3835 -0.50021,0.65032 -0.27505,0.26682 -0.63758,0.68702 -0.80562,0.93377 -0.16804,0.24676 -0.40213,0.44905 -0.52019,0.44953 -0.11806,5.2e-4 -0.35011,0.1164 -0.51567,0.25758 -0.61849,0.52744 -1.30675,1.03248 -1.40704,1.03248 -0.057,0 -0.44064,0.29689 -0.85247,0.65975 -1.14068,1.00505 -2.25639,1.68456 -3.03505,1.84845 -0.855,0.17996 -1.61756,0.22003 -1.69838,0.0892 z m -52.847312,-1.94925 c -0.27218,-0.0526 -1.11337,-0.0747 -1.86931,-0.0491 -0.75594,0.0256 -1.60649,-0.008 -1.89011,-0.0747 -0.28362,-0.0667 -1.15382,-0.24878 -1.93377,-0.40468 -1.6463,-0.32905 -2.61261,-0.65244 -5.37093,-1.79748 -0.9679,-0.40179 -2.31567,-1.39626 -2.76449,-2.03981 -0.18536,-0.26578 -0.55322,-1.41856 -0.62378,-1.95478 -0.014,-0.10635 -0.0617,-0.28039 -0.10599,-0.38675 -0.23618,-0.56705 -0.33959,-1.22455 -0.21228,-1.34976 0.093,-0.0915 0.18725,-0.0621 0.30276,0.0942 0.1479,0.20019 0.1867,0.20417 0.32823,0.0337 0.27829,-0.33533 0.40638,-0.0655 0.13355,0.28138 -0.73124,0.92962 0.13203,3.105 1.67366,4.21755 0.48688,0.35136 1.75085,0.97723 1.97357,0.97723 0.0751,0 0.37249,0.11157 0.66077,0.24792 0.88587,0.41901 3.19245,1.14427 3.94047,1.23899 0.38998,0.0494 0.82507,0.15236 0.96688,0.22883 0.38347,0.20677 1.69161,0.36959 2.64282,0.32893 0.46088,-0.0197 1.17642,-0.0335 1.5901,-0.0308 0.74663,0.005 0.75147,0.003 0.66234,-0.3276 -0.0967,-0.35846 -0.099,-4.09909 -0.005,-8.45261 0.0731,-3.3901 0.19023,-3.18775 -1.78274,-3.07956 -0.78727,0.0432 -1.38965,0.0347 -1.33861,-0.0188 0.14307,-0.14994 3.7421,-0.44087 3.96672,-0.32065 0.10921,0.0584 0.55836,0.098 0.99811,0.0879 0.48527,-0.0111 0.86204,0.0441 0.95854,0.14062 0.2622,0.2622 0.95464,0.1948 1.15888,-0.1128 0.16003,-0.24101 0.23454,-0.25687 0.65783,-0.14 0.50254,0.13876 0.72231,0.12561 1.60765,-0.0962 0.42402,-0.10625 0.65324,-0.0957 1.03134,0.0477 0.46892,0.17781 2.23863,0.35793 3.3396,0.33988 0.29311,-0.005 0.6992,0.078 0.902418,0.18398 0.20323,0.10599 0.41251,0.19307 0.46508,0.1935 0.0526,3.9e-4 0.3528,0.18934 0.66719,0.41978 0.31439,0.23044 0.78109,0.56402 1.03711,0.74128 0.49862,0.34523 1.01521,1.11723 1.15809,1.73067 0.0773,0.33167 0.0636,0.35692 -0.11367,0.20982 -0.11081,-0.092 -0.20148,-0.23757 -0.20148,-0.32356 0,-0.244 -1.1472,-1.34719 -1.68763,-1.6229 -0.26756,-0.1365 -0.52581,-0.31183 -0.57389,-0.38961 -0.16329,-0.26421 -1.280568,-0.67844 -2.121678,-0.7866 -0.46089,-0.0593 -1.30889,-0.12311 -1.88445,-0.14187 -0.6409,-0.0209 -1.12751,-0.10135 -1.25554,-0.20761 -0.21724,-0.18029 -0.75856,-0.13542 -1.60754,0.13325 -0.39402,0.12469 -0.40969,0.14899 -0.19338,0.29968 0.26381,0.18377 1.25256,0.38644 1.66574,0.34143 0.28397,-0.0309 1.8852,0.56458 2.71755,1.0107 0.26914,0.14425 0.55489,0.26227 0.63501,0.26227 0.0801,0 0.2886,0.11243 0.46329,0.24984 0.1747,0.13742 0.48709,0.29186 0.69421,0.3432 0.207118,0.0513 0.779758,0.37577 1.272528,0.72094 1.29448,0.90672 1.61191,1.4921 1.15942,2.13812 -0.11037,0.15758 -0.15678,0.28652 -0.10313,0.28652 0.0537,0 0.0279,0.0696 -0.0572,0.1547 -0.0851,0.0851 -0.1547,0.28556 -0.1547,0.44549 0,0.45908 -0.58442,1.20182 -1.31703,1.67381 -0.36988,0.2383 -0.746838,0.43327 -0.837698,0.43327 -0.0909,0 -0.44089,0.19126 -0.77786,0.42502 -0.33696,0.23376 -0.78669,0.50159 -0.99941,0.59518 -0.21271,0.0936 -0.50278,0.23045 -0.64459,0.30415 -0.1418,0.0737 -0.34485,0.17567 -0.45121,0.22659 -0.10635,0.0509 -0.43354,0.21602 -0.72708,0.36689 -0.29353,0.15088 -0.68877,0.28715 -0.8783,0.30284 -0.18953,0.0157 -0.40607,0.10258 -0.4812,0.1931 -0.0751,0.0905 -0.21855,0.16459 -0.31872,0.16459 -0.10017,0 -0.31061,0.0827 -0.46765,0.18375 -0.5746,0.36977 -2.18528,0.81516 -3.97456,1.09904 -0.93585,0.14848 -0.98677,0.14878 -1.70472,0.01 z m 51.211012,-0.70419 c -0.0511,-0.0511 -3.71566,-0.33516 -4.4991,-0.34878 -0.25768,-0.004 -2.28348,-0.60616 -2.77173,-0.82324 -0.6095,-0.27098 -1.75107,-0.67767 -2.38498,-0.84966 -0.31907,-0.0866 -0.63525,-0.20563 -0.70261,-0.26458 -0.0673,-0.059 -0.22977,-0.10719 -0.36092,-0.10719 -0.13115,0 -0.42412,-0.0968 -0.65104,-0.21503 -0.45512,-0.23721 -2.16633,-0.55187 -3.02316,-0.5559 l -0.5479,-0.003 v -0.51567 c 0,-0.48945 0.14861,-0.66778 0.32229,-0.38675 0.0438,0.0709 0.19228,0.12892 0.3299,0.12892 0.13763,0 0.25023,0.0494 0.25023,0.10978 0,0.11255 1.20622,0.45426 2.12714,0.6026 0.28362,0.0457 1.04582,0.28118 1.69378,0.52331 0.64795,0.24213 1.27714,0.44024 1.3982,0.44024 0.12106,0 0.37409,0.0857 0.56229,0.19056 0.42415,0.2362 1.65718,0.67946 2.59825,0.93404 0.38998,0.1055 0.76965,0.24092 0.84372,0.30093 0.0741,0.06 0.88625,0.1264 1.80485,0.14753 1.43655,0.033 1.66187,0.0114 1.61077,-0.15496 -0.0327,-0.10636 -0.077,-0.97656 -0.0985,-1.93377 -0.0215,-0.95722 -0.0887,-2.50996 -0.14932,-3.45055 -0.0606,-0.94059 -0.0923,-2.04283 -0.0703,-2.44944 0.022,-0.40661 0.069,-1.21656 0.10452,-1.7999 0.0371,-0.60991 0.0123,-1.09294 -0.0585,-1.13668 -0.0677,-0.0418 -0.4269,0.0106 -0.79822,0.1166 -0.37132,0.10598 -0.96519,0.23443 -1.31971,0.28547 -0.35453,0.051 -0.89596,0.20027 -1.20318,0.33164 -0.30722,0.13138 -0.71331,0.23912 -0.90242,0.23943 -0.18911,2.6e-4 -0.73543,0.13767 -1.21404,0.30526 -0.4786,0.16759 -0.87019,0.28434 -0.87019,0.25945 0,-0.15804 1.46652,-0.74066 2.23664,-0.88857 0.50702,-0.0974 1.1483,-0.27202 1.42507,-0.38809 0.27678,-0.11607 0.94393,-0.29956 1.48256,-0.40775 0.53863,-0.1082 1.22671,-0.24713 1.52907,-0.30875 0.30236,-0.0616 0.65044,-0.16401 0.77351,-0.22753 0.12307,-0.0635 0.60084,-0.17856 1.06173,-0.25563 2.73464,-0.45726 6.47767,-0.55125 8.18628,-0.20555 0.56724,0.11476 1.2924,0.22814 1.61147,0.25195 1.50762,0.11248 1.60993,0.14139 1.63995,0.46342 0.0157,0.16798 0.0674,0.70004 0.11488,1.18234 0.0833,0.84527 0.0528,1.00117 -0.35177,1.79638 -0.0626,0.12312 -0.11388,0.28733 -0.11388,0.36491 0,0.0776 -0.21755,0.45911 -0.48344,0.84785 -0.26589,0.38874 -0.62848,0.92744 -0.80574,1.1971 -0.17726,0.26966 -0.49032,0.74461 -0.69568,1.05543 -0.57112,0.86442 -1.07685,1.40429 -2.00313,2.13838 -0.46553,0.36894 -1.02843,0.81854 -1.25088,0.99911 -0.22244,0.18057 -0.44691,0.32831 -0.4988,0.32831 -0.0519,0 -0.42102,0.19636 -0.82028,0.43635 -0.39925,0.24 -1.10299,0.56517 -1.56387,0.72261 -0.46088,0.15745 -1.07002,0.39208 -1.35364,0.52142 -0.28362,0.12933 -0.79865,0.27293 -1.14451,0.3191 -0.34587,0.0462 -0.69698,0.11009 -0.78024,0.14204 -0.0833,0.032 -0.18021,0.0293 -0.21542,-0.006 z m -35.181554,-2.4592 c 0,-0.11746 0.0725,-0.18898 0.16115,-0.15894 0.0956,0.0324 0.21409,-0.12943 0.2913,-0.3979 0.0716,-0.2489 0.19779,-0.47509 0.28047,-0.50265 0.0966,-0.0322 0.0663,0.1715 -0.0846,0.5698 -0.22981,0.60643 -0.64832,0.92254 -0.64832,0.48969 z m 1.2545,-2.35146 c 0.13746,-0.49153 0.0573,-3.54197 -0.0971,-3.69641 -0.0693,-0.0693 -0.12601,-0.34053 -0.12601,-0.60273 0,-0.27161 -0.13801,-0.71814 -0.32074,-1.03779 -0.32666,-0.57141 -0.4171,-1.01228 -0.20767,-1.01228 0.19432,0 0.65871,0.89587 0.86146,1.66187 0.26973,1.01905 0.39339,4.14626 0.18396,4.65188 -0.20214,0.488 -0.42804,0.51526 -0.29386,0.0355 z m 59.605114,-0.35452 c 6.4e-4,-0.14181 0.0809,-0.43188 0.17834,-0.64459 0.17267,-0.37711 0.17723,-0.37871 0.18299,-0.0645 0.003,0.17726 -0.077,0.46733 -0.17834,0.64459 -0.16246,0.2842 -0.18409,0.29182 -0.18299,0.0645 z m -42.63973,-1.09581 c 0.0456,-0.17726 0.0837,-0.47498 0.0847,-0.6616 0.005,-0.8769 2.9823,-3.46183 4.5797,-3.97555 0.28287,-0.091 0.61011,-0.2489 0.72719,-0.35095 0.11709,-0.10205 0.58119,-0.26894 1.03135,-0.37087 0.45015,-0.10193 0.96349,-0.25377 1.14075,-0.33743 0.30351,-0.14324 1.05373,-0.25631 2.93288,-0.44205 1.04115,-0.10291 2.51349,0.0485 2.44562,0.25148 -0.0338,0.10108 -0.5731,0.16061 -1.65077,0.18222 -0.90992,0.0182 -1.89996,0.11436 -2.29438,0.22273 -0.38159,0.10484 -0.74123,0.16131 -0.7992,0.12548 -0.058,-0.0358 -0.4546,0.0525 -0.88138,0.19626 -0.42679,0.14377 -0.9362,0.2614 -1.13202,0.2614 -0.19583,0 -0.67805,0.19875 -1.0716,0.44166 -0.39355,0.24292 -0.87092,0.48066 -1.06083,0.52833 -0.1899,0.0477 -0.41277,0.16798 -0.49527,0.26738 -0.0825,0.0994 -0.22925,0.18073 -0.32612,0.18073 -0.0969,0 -0.65223,0.46411 -1.23414,1.03134 -0.5819,0.56724 -1.09536,1.03135 -1.14103,1.03135 -0.13095,0 -0.38224,0.62649 -0.38224,0.95297 0,0.16293 -0.12513,0.40676 -0.27807,0.54183 -0.27696,0.2446 -0.27774,0.24429 -0.19514,-0.0767 z m 3.05157,0.12892 c 0,-0.0709 0.0614,-0.12892 0.13653,-0.12892 0.0751,0 0.10067,0.058 0.0568,0.12892 -0.0438,0.0709 -0.10526,0.12892 -0.13653,0.12892 -0.0313,0 -0.0568,-0.058 -0.0568,-0.12892 z m 39.97843,-0.58013 c -0.004,-0.21271 0.10545,-0.6188 0.24305,-0.90242 l 0.25019,-0.51567 -0.077,0.51567 c -0.0423,0.28362 -0.15173,0.68971 -0.24305,0.90242 l -0.16605,0.38676 -0.007,-0.38676 z m -39.33384,-0.0872 c 0,-0.11296 0.14243,-0.29871 0.31651,-0.41278 0.17408,-0.11406 0.42063,-0.31362 0.5479,-0.44346 0.3541,-0.36128 1.47033,-1.07148 1.61058,-1.02473 0.0685,0.0228 -0.21383,0.26813 -0.62735,0.54512 -0.41351,0.27698 -0.9984,0.73708 -1.29974,1.02243 -0.37012,0.35047 -0.5479,0.45217 -0.5479,0.31342 z m -51.567142,-0.7197 c 0,-0.0538 0.13053,-0.1781 0.29007,-0.2761 0.28903,-0.17756 0.28919,-0.17721 0.0445,0.0979 -0.26275,0.29538 -0.33455,0.33363 -0.33455,0.17819 z m -3.29671,-0.33108 c -0.23163,-0.60362 1.31142,-2.02116 2.89243,-2.65717 0.54143,-0.21781 1.10044,-0.3976 1.24225,-0.39953 0.24047,-0.003 1.03697,-0.26214 1.92915,-0.62696 0.21018,-0.0859 0.64528,-0.14244 0.96689,-0.12554 0.32161,0.0169 0.96182,-0.009 1.42271,-0.0586 0.46088,-0.0491 1.59155,-0.11034 2.5126,-0.13601 1.39278,-0.0388 1.74357,-0.01 2.08417,0.17283 l 0.40952,0.2195 -0.41738,0.15093 c -0.5512,0.19931 -0.65676,0.19036 -0.46597,-0.0395 0.1387,-0.16713 -0.10015,-0.18199 -1.95021,-0.12135 -1.15955,0.038 -2.35394,0.12432 -2.6542,0.19181 -0.30026,0.0675 -0.85138,0.0879 -1.22472,0.0453 -0.59104,-0.0674 -0.81776,-0.0176 -1.75379,0.38539 -0.59125,0.25456 -1.16068,0.46284 -1.2654,0.46284 -0.10472,0 -0.60719,0.19818 -1.11661,0.44041 -0.99866,0.47486 -2.1,1.43898 -2.22847,1.95083 -0.0864,0.34409 -0.27862,0.41683 -0.38297,0.14489 z m 4.07857,-0.29012 c 0.0929,-0.11189 0.43353,-0.34668 0.75706,-0.52177 1.70515,-0.92277 1.64036,-0.89297 2.20393,-1.01368 0.24584,-0.0527 0.51254,-0.14838 0.59266,-0.21272 0.28103,-0.22567 2.39867,-0.88324 2.24393,-0.69679 -0.0821,0.099 -0.47934,0.27566 -0.88271,0.39268 -0.40337,0.11702 -1.02925,0.35336 -1.39086,0.52519 -0.36161,0.17183 -0.77226,0.31243 -0.91255,0.31243 -0.22582,0 -1.42007,0.68822 -1.58847,0.9154 -0.063,0.085 -0.99969,0.50269 -1.12733,0.50269 -0.0355,0 0.0115,-0.0915 0.10434,-0.20343 z m 90.757062,-0.50562 c -0.005,-1.23236 2.10779,-5.47901 2.72531,-5.47901 0.18975,0 0.10682,0.39363 -0.0996,0.47284 -0.11179,0.0429 -0.26086,0.20062 -0.33127,0.35048 -0.0704,0.14987 -0.29464,0.56255 -0.49828,0.91707 -0.67989,1.18365 -1.28784,2.53367 -1.3687,3.03939 -0.044,0.27525 -0.15798,0.6032 -0.25326,0.72877 -0.1634,0.21534 -0.17329,0.21366 -0.17418,-0.0295 z m -37.26451,-0.11984 c 0,-0.0354 0.11603,-0.12656 0.25784,-0.20245 0.14181,-0.0759 0.25783,-0.10898 0.25783,-0.0735 0,0.0354 -0.11602,0.12655 -0.25783,0.20245 -0.14181,0.0759 -0.25784,0.10898 -0.25784,0.0735 z m 1.36123,-0.77848 c 0.13763,-0.1041 0.30826,-0.18928 0.37916,-0.18928 0.0709,0 0.0163,0.0852 -0.12133,0.18928 -0.13763,0.1041 -0.30825,0.18928 -0.37916,0.18928 -0.0709,0 -0.0163,-0.0852 0.12133,-0.18928 z m -48.351782,-1.42481 c 0.42211,-0.19551 1.87114,-0.26348 1.66949,-0.0783 -0.0674,0.0619 -0.55757,0.14508 -1.08936,0.18495 -0.89604,0.0672 -0.93854,0.0594 -0.58013,-0.10664 z m 42.800722,-6.06122 c -1.19501,-0.19888 -1.79745,-0.37244 -2.74332,-0.79037 -0.37435,-0.16541 -0.7908,-0.30074 -0.92545,-0.30074 -0.45315,0 -0.90781,-0.68016 -0.90781,-1.35806 0,-0.43878 0.48932,-1.32348 0.78368,-1.41691 0.154,-0.0489 0.24766,-0.19608 0.24766,-0.38924 0,-0.44601 0.49296,-0.71235 1.44179,-0.77897 1.63647,-0.11489 1.98198,-0.16064 2.36129,-0.31266 0.95087,-0.38111 2.07817,-0.62812 2.99883,-0.65711 1.12903,-0.0355 2.35126,-0.46435 2.35126,-0.82491 0,-0.12689 0.0883,-0.19398 0.2256,-0.17132 0.28944,0.0478 1.69365,-0.50802 2.03046,-0.80369 0.14181,-0.12449 0.57691,-0.32155 0.96688,-0.43791 0.38998,-0.11636 0.85409,-0.29365 1.03135,-0.39397 0.17726,-0.10031 0.46732,-0.24873 0.64459,-0.32981 0.17726,-0.0811 0.47627,-0.22789 0.66448,-0.32626 0.1882,-0.0984 0.45085,-0.17885 0.58367,-0.17885 0.13282,0 0.37081,-0.0906 0.52886,-0.20128 0.29705,-0.20806 1.02958,-0.37633 2.47727,-0.56908 0.46089,-0.0614 0.99411,-0.17146 1.18494,-0.24467 0.45303,-0.17379 6.51911,-0.29973 6.61941,-0.13743 0.0412,0.0666 0.25208,0.12112 0.46868,0.12112 0.2166,0 0.60477,0.10922 0.86259,0.24271 0.25782,0.13348 0.72982,0.34706 1.04889,0.4746 0.31908,0.12755 0.8702,0.44576 1.22472,0.70714 0.35453,0.26137 0.81863,0.58144 1.03135,0.71126 0.61304,0.37414 2.49974,1.97713 2.71659,2.30809 0.35882,0.54763 0.3091,1.216 -0.16091,2.16324 -0.40454,0.81529 -0.45904,0.8702 -0.86378,0.8702 -0.62927,0 -1.73669,-0.22914 -2.18267,-0.45162 -0.21275,-0.10613 -0.55749,-0.19297 -0.76609,-0.19297 -0.2086,0 -0.53326,-0.10749 -0.72147,-0.23886 -0.4477,-0.3125 -1.62917,-0.90266 -2.26034,-1.12906 -0.39799,-0.14277 -0.66111,-0.15052 -1.28918,-0.038 -0.43402,0.0778 -1.02637,0.15565 -1.31633,0.17311 -0.28995,0.0175 -0.60588,0.0804 -0.70205,0.13981 -0.21632,0.13369 -1.52775,0.50871 -2.89612,0.82817 -1.27506,0.29768 -2.31177,0.67428 -2.61729,0.95077 -0.3871,0.35033 -1.28515,0.59744 -2.06171,0.56731 -0.47779,-0.0185 -0.89505,0.0479 -1.19072,0.18971 -0.25034,0.12003 -0.8128,0.27583 -1.24992,0.34623 -0.43712,0.0704 -0.91013,0.18973 -1.05114,0.2652 -0.14101,0.0755 -0.48894,0.13721 -0.77316,0.13721 -0.28563,0 -0.71277,0.11564 -0.95496,0.25854 -0.241,0.14219 -0.66491,0.27461 -0.94202,0.29427 -0.27712,0.0197 -0.69041,0.12994 -0.91843,0.24507 -0.22803,0.11512 -0.66312,0.24855 -0.96689,0.29649 -0.30376,0.0479 -0.93564,0.19841 -1.40416,0.33437 -0.97158,0.28194 -1.20391,0.28628 -2.62892,0.0491 z m -26.832172,-1.53359 c -0.13232,-0.091 -0.47263,-0.23925 -0.75625,-0.32949 -0.28361,-0.0902 -0.5751,-0.21076 -0.64775,-0.26784 -0.21204,-0.16661 -1.22515,-0.47765 -2.02774,-0.62254 -0.40796,-0.0737 -0.85374,-0.19386 -0.99064,-0.26713 -0.1369,-0.0733 -0.50269,-0.13321 -0.81287,-0.13321 -0.31019,0 -0.67658,-0.0852 -0.81422,-0.18928 -0.13763,-0.1041 -0.38308,-0.19112 -0.54544,-0.19337 -0.16236,-0.002 -0.53492,-0.1264 -0.82791,-0.27587 -0.29299,-0.14947 -0.97233,-0.34969 -1.50965,-0.44494 -0.53732,-0.0952 -1.26701,-0.23643 -1.62153,-0.31374 -1.06441,-0.23213 -3.65301,-0.27386 -4.31875,-0.0696 -0.31907,0.0979 -0.90626,0.20964 -1.30486,0.24834 -0.73294,0.0712 -1.45272,0.22192 -2.62713,0.55023 -0.35453,0.0991 -1.05068,0.26213 -1.54702,0.36227 -0.49633,0.10014 -1.13447,0.25597 -1.41809,0.34629 -0.30015,0.0956 -1.1892,0.16589 -2.12715,0.16821 -1.43059,0.004 -1.67276,-0.0287 -2.15749,-0.2873 -0.62731,-0.33465 -0.88201,-0.67392 -1.00287,-1.33587 -0.12437,-0.6812 0.093,-1.00016 1.92166,-2.81963 1.64637,-1.63812 2.81339,-2.44385 3.55417,-2.45387 0.37498,-0.005 2.45845,-0.70429 2.57231,-0.86328 0.0416,-0.058 0.71288,-0.21119 1.49184,-0.34036 0.77895,-0.12917 1.56213,-0.30851 1.74039,-0.39852 0.69551,-0.3512 1.61628,-0.48053 2.39558,-0.33646 0.41119,0.076 1.07054,0.14062 1.46522,0.14357 0.48131,0.004 1.14211,0.15543 2.00678,0.46109 0.70905,0.25064 1.69527,0.57436 2.1916,0.71938 0.49634,0.14501 1.05718,0.34407 1.24632,0.44235 0.18914,0.0983 0.61407,0.21571 0.94429,0.26097 0.33022,0.0453 0.67141,0.15331 0.75821,0.24011 0.25685,0.25685 0.95179,0.57939 1.34766,0.62548 0.20265,0.0236 0.53711,0.13597 0.74326,0.24972 0.20615,0.11376 0.86792,0.32579 1.47061,0.47119 0.60269,0.1454 1.24084,0.38134 1.4181,0.52431 0.17726,0.14296 0.58335,0.4571 0.90242,0.69809 0.77076,0.58212 2.449438,2.54177 2.449438,2.85941 0,0.0862 0.0957,0.32349 0.21271,0.52734 0.43477,0.75753 -0.082,1.86438 -0.95172,2.03846 -0.89414,0.17897 -2.566488,0.18224 -2.823488,0.006 z m 11.166882,62.45249 c 0.24625,-0.0706 1.08706,-0.16225 1.86846,-0.20362 1.72983,-0.0916 1.50765,-0.0867 2.51652,-0.0559 0.82987,0.0253 4.86279,-0.31496 5.60793,-0.47315 0.21271,-0.0451 0.59568,-0.0711 0.85104,-0.0576 0.25536,0.0135 0.62738,-0.0375 0.82672,-0.11333 0.19934,-0.0758 0.71557,-0.16806 1.14719,-0.20505 0.43161,-0.037 1.10382,-0.0974 1.4938,-0.13415 0.38997,-0.0368 1.4052,-0.0911 2.25606,-0.12069 2.37196,-0.0825 4.68066,-0.40099 5.54346,-0.76479 0.21272,-0.0897 0.67682,-0.20103 1.03135,-0.24738 0.73074,-0.0956 1.99822,-0.68991 1.99822,-0.93699 0,-0.16076 -0.19627,-0.23167 -0.96688,-0.34929 -0.41029,-0.0626 -0.90812,-0.22379 -1.89773,-0.61437 -0.3347,-0.13211 -0.88582,-0.27758 -1.22472,-0.32328 -0.33889,-0.0457 -0.81921,-0.18449 -1.06738,-0.30845 -0.83707,-0.41809 -0.99457,-0.42392 -1.12204,-0.0415 l -0.11535,0.34608 -0.42348,-0.53468 c -0.33969,-0.42889 -0.50574,-0.53469 -0.83922,-0.53469 -0.22866,0 -0.52835,-0.0852 -0.66599,-0.18928 -0.13763,-0.1041 -0.5142,-0.19112 -0.83682,-0.19337 -0.32262,-0.002 -0.64169,-0.0557 -0.70905,-0.11887 -0.38725,-0.36285 -3.32777,-0.39834 -3.99196,-0.0482 -0.14074,0.0742 -0.60396,0.23561 -1.02939,0.35871 -0.42543,0.1231 -1.01601,0.39046 -1.3124,0.59415 -0.2964,0.20368 -0.6016,0.37033 -0.67823,0.37033 -0.0766,0 -0.38524,0.11053 -0.68582,0.24564 -0.90161,0.40526 -1.54134,0.43646 -2.58167,0.12587 -0.51146,-0.1527 -1.27801,-0.466 -1.70344,-0.69622 -0.7364,-0.39852 -0.85856,-0.42214 -2.54638,-0.49249 -1.70677,-0.0712 -1.78269,-0.0634 -2.03623,0.20877 -0.20429,0.21929 -0.28682,0.2447 -0.36802,0.11332 -0.0837,-0.1354 -0.218244,-0.13964 -0.671054,-0.0211 -1.21195,0.31716 -2.12552,0.69235 -2.39727,0.98453 -0.32988,0.35468 -0.42517,0.37974 -0.42517,0.11185 0,-0.10636 -0.0533,-0.19338 -0.1185,-0.19338 -0.30983,0 -1.69021,0.41652 -2.13946,0.64556 -0.27716,0.14131 -0.60371,0.22524 -0.72568,0.18653 -0.12197,-0.0387 -0.6463,0.12937 -1.165188,0.37351 -0.51888,0.24416 -1.2915,0.51872 -1.71693,0.61015 -0.91987,0.19768 -1.61147,0.46446 -1.61147,0.62163 0,0.12855 0.31351,0.2699 0.59865,0.2699 0.10495,0 0.4918,0.13788 0.85966,0.3064 0.90537,0.41474 2.043938,0.62333 3.053808,0.55945 0.46088,-0.0292 0.983,0.002 1.16026,0.07 0.34495,0.13163 0.85709,0.21573 3.28741,0.53991 0.85085,0.1135 1.86608,0.25458 2.256064,0.31349 0.38998,0.0589 0.76744,0.11555 0.83882,0.12584 0.0714,0.0103 0.33125,-0.0391 0.5775,-0.1097 z M 55.326068,182.15914 c 0.12235,-0.19798 0.41952,-1.97695 0.44359,-2.65556 0.0126,-0.35453 0.0793,-1.51479 0.14825,-2.57836 0.069,-1.06357 0.12524,-2.33986 0.12507,-2.8362 -1.3e-4,-0.49633 0.002,-2.38175 0.004,-4.18983 0.015,-10.17084 -0.10347,-12.81033 -0.63774,-14.21558 -0.0734,-0.19299 -0.16133,-1.14047 -0.19545,-2.10549 -0.0579,-1.63696 -0.27702,-2.80437 -0.60464,-3.22099 -0.0605,-0.077 -0.0891,-0.38657 -0.0636,-0.68802 0.0256,-0.30146 -0.004,-0.96365 -0.0666,-1.47155 -0.0622,-0.5079 -0.13994,-1.15551 -0.17284,-1.43913 -0.10594,-0.91351 -0.3349,-1.54373 -0.72184,-1.98691 -0.20793,-0.23816 -0.37806,-0.51217 -0.37806,-0.60892 0,-0.0968 -0.0883,-0.17591 -0.19625,-0.17591 -0.29197,0 -1.33605,-1.01278 -1.62208,-1.57344 -0.13728,-0.26908 -0.30252,-0.48924 -0.3672,-0.48924 -0.0647,0 -0.15393,-0.11444 -0.19833,-0.25431 -0.0686,-0.21622 -1.37136,-2.00292 -1.60053,-2.19513 -0.0423,-0.0354 -0.58176,-0.61943 -1.19886,-1.29773 -1.53806,-1.69059 -1.93655,-1.8934 -3.91375,-1.99195 l -1.53872,-0.0767 -0.84875,0.49069 c -1.03882,0.60059 -2.17598,1.83964 -2.41655,2.63308 -0.0942,0.31069 -0.26808,0.67233 -0.38639,0.80364 -0.15154,0.16817 -0.22868,0.53724 -0.26099,1.24864 -0.0655,1.44236 0.29897,2.48718 1.20627,3.45805 1.89487,2.02761 2.53346,3.2245 3.62066,6.78609 0.17315,0.56724 0.37186,1.2095 0.44157,1.42725 0.0697,0.21775 0.12674,0.61315 0.12674,0.87867 0,0.26552 0.0717,0.60948 0.15932,0.76436 0.14661,0.25911 0.34212,1.03194 0.59425,2.34899 0.0548,0.28621 0.13795,0.58239 0.18479,0.65818 0.0826,0.1336 0.35651,1.55355 0.63067,3.2691 0.0737,0.46088 0.14332,1.18604 0.15481,1.61147 0.0115,0.42543 0.0773,0.86053 0.14629,0.96689 0.14487,0.22339 0.24355,1.08845 0.58091,5.09226 0.0836,0.99266 0.17761,2.21094 0.20884,2.70727 0.0563,0.89415 0.32851,1.95235 0.63021,2.44944 0.1523,0.25093 0.64395,1.80629 0.97386,3.08087 0.0899,0.34729 0.34441,0.8694 0.5656,1.16026 0.54735,0.71976 1.2662,1.76416 1.42296,2.06737 0.15056,0.29123 1.46567,1.23267 1.72235,1.23299 0.0964,1.1e-4 0.50252,0.16572 0.90242,0.36801 1.21541,0.61482 2.21262,0.84271 2.39515,0.54737 z m -3.87836,-15.64404 c -1.80421,-1.67837 -2.10845,-1.99899 -2.10845,-2.22195 0,-0.12096 -0.1165,-0.38353 -0.25889,-0.58349 -0.14238,-0.19997 -0.29559,-0.55701 -0.34045,-0.79341 -0.0449,-0.23641 -0.14202,-0.54586 -0.21591,-0.68767 -0.18721,-0.35929 -0.26198,-1.17777 -0.26174,-2.86539 1.6e-4,-1.17302 0.0411,-1.49254 0.2163,-1.68608 0.11886,-0.13134 0.2161,-0.35462 0.2161,-0.49618 0,-0.29908 1.09522,-1.76509 1.36467,-1.82668 0.10029,-0.0229 0.18235,-0.13605 0.18235,-0.25139 0,-0.15631 0.0372,-0.17249 0.14617,-0.0635 0.10895,0.10895 0.0101,0.3371 -0.3883,0.89598 -0.77758,1.09086 -1.2731,2.22867 -1.41428,3.24743 -0.10791,0.77867 -0.0862,1.02861 0.16778,1.92852 0.32836,1.16363 1.17894,2.96425 1.52086,3.21955 0.12408,0.0927 0.2256,0.22268 0.2256,0.28895 0,0.35732 1.43171,1.91304 1.76965,1.92294 0.21423,0.006 0.59368,0.60459 0.48992,0.77248 -0.147,0.23784 -0.28838,0.15158 -1.31138,-0.80007 z m -8.77995,-27.39122 c -0.18558,-0.0663 -0.22158,-0.55174 -0.0409,-0.55174 0.11788,0 0.33258,0.49927 0.24607,0.5722 -0.0242,0.0204 -0.11652,0.0112 -0.20515,-0.0205 z"
       id="path24" />
  </g>
</svg>
