<svg width="136" height="169" viewBox="0 0 136 169" xmlns="http://www.w3.org/2000/svg">
<path d="M59.9999 12.7781C60.1999 12.7781 60.2999 12.7781 60.4999 12.7781C61.5999 12.7781 62.5999 11.8781 62.5999 10.6781C62.5999 9.57813 61.6999 8.57812 60.4999 8.57812C60.2999 8.57812 60.1999 8.57812 59.9999 8.57812C58.8999 8.57812 57.8999 9.47813 57.8999 10.6781C57.9999 11.7781 58.8999 12.7781 59.9999 12.7781Z" />
<path d="M133.3 61.8781C129.9 61.6781 127.9 63.9781 126 66.4781C123 70.3781 119.4 73.6781 115.2 76.3781C107.8 81.1781 99.1 83.5781 90.3 83.7781C90.3 83.2781 90.2 82.7781 90.2 82.1781C94.3 79.2781 97.5 75.5781 99.7 71.0781C100.3 69.8781 99.8 68.4781 98.5 68.0781C95.4 67.1781 92.3 66.8781 89.1 66.8781C89 65.9781 89 65.0781 88.9 64.1781C88.8 62.2781 88.6 60.3781 88.5 58.4781C90.1 56.8781 91.7 55.2781 93.2 53.6781C94.5 52.3781 96.1 50.9781 96.1 48.9781C96.1 47.1781 94.8 45.8781 93.4 44.9781C91.5 43.7781 89.1 44.4781 87 44.0781C86.9 43.3781 86.8 42.7781 86.7 42.0781C86.2 39.4781 85.6 36.8781 84.8 34.3781C86.5 32.7781 88.1 31.1781 89.5 29.2781C90.9 27.4781 92.9 25.1781 92.2 22.7781C91.5 20.3781 89.1 20.1781 87.1 20.1781C84.2 20.2781 81.3 20.7781 78.5 21.3781C76.1 17.9781 73.1 14.8781 69.6 12.3781C69.3 7.27808 68 2.37808 62.6 0.378081C59.4 -0.821919 55.6 1.0781 53 2.6781C51.7 3.4781 50.4 4.17809 49.3 4.97809C48.6 3.97809 47.9 2.97811 46.8 2.27811C45.2 1.17811 43.2 0.778105 41.3 0.778105C37.4 0.578105 33.8 3.47809 32.3 6.97809C32.2 7.17809 32.2 7.27809 32.2 7.47809C16.6 9.17809 0.9 15.6781 0 32.9781C0 33.3781 0.100012 33.6781 0.200012 33.9781C0.200012 34.4781 0.300012 34.8781 0.700012 35.1781C0.300012 35.7781 0.200012 36.4781 0.700012 37.2781C2.30001 39.4781 2.20002 43.3781 5.90002 43.3781C8.90002 43.3781 11.7 39.9781 13.5 37.6781C19 38.7781 24.4 40.1781 29.7 41.7781C25.2 44.9781 20.7 48.0781 16.1 51.2781C15.9 51.0781 15.7 50.9781 15.4 50.7781C12.2 49.5781 8.10002 47.1781 5.30002 50.4781C2.80002 53.3781 4.30001 57.0781 6.20001 59.7781C6.30001 59.9781 6.40001 60.2781 6.60001 60.4781C11.3 66.5781 18.9 69.2781 26.4 69.1781C32.1 69.0781 38.6 68.2781 44.1 66.1781C44.8 73.7781 45.5 81.4781 46.4 89.0781C39.5 91.0781 34.1 96.0781 31.4 102.778C30.8 104.178 32.2 105.278 33.4 105.378C38.6 105.978 43.7 104.678 48 101.978C49 109.478 50.6 116.878 54.4 123.578C55.5 125.478 56.8 127.278 58.3 128.878C56 132.078 54.6 135.578 54.2 139.478C49.9 138.078 45.2 137.178 41.1 139.178C37.3 140.978 34.8 144.078 34.5 148.378C34.4 149.278 35.2 150.178 36 150.378C43.7 152.378 51.5 153.978 59.3 154.978C61 155.178 63.4 155.478 64.1 153.478C65 150.978 65.2 148.178 65.4 145.378C70.7 147.378 76.3 144.978 79.1 139.778C80.5 139.978 81.8 140.178 83.2 140.278C83.4 143.578 84.4 146.778 86.3 149.778C81 150.578 76 152.578 73.5 157.978C71.6 162.178 72.9 169.278 78.7 168.578C87 167.578 95.4 164.778 103 161.478C105 160.678 107.9 159.078 106.9 156.278C105.6 152.778 103.9 149.378 102.2 145.978C109.3 143.578 113.2 137.178 113.2 130.578C116.1 128.278 118.7 125.578 121 122.578C133.1 106.578 135.1 83.1781 135.4 63.8781C135.3 62.7781 134.4 61.8781 133.3 61.8781ZM94.8 71.4781C93.4 73.6781 91.8 75.5781 89.9 77.2781C89.7 75.1781 89.6 73.0781 89.4 71.0781C91.2 70.9781 93 71.1781 94.8 71.4781ZM89.7 48.3781C90.5 48.3781 92.7 48.4781 91.6 49.5781C90.5 50.7781 89.3 51.8781 88.1 53.0781C88 51.4781 87.8 49.8781 87.6 48.2781C88.3 48.3781 89 48.3781 89.7 48.3781ZM84.5 24.5781C85.4 24.4781 86.3 24.3781 87.1 24.3781C87.4 24.3781 87.6 24.3781 87.9 24.3781C87.9 24.4781 87.8 24.5781 87.8 24.7781C86.6 26.7781 85 28.5781 83.3 30.2781C82.6 28.5781 81.8 26.8781 80.8 25.1781C82.1 24.9781 83.3 24.6781 84.5 24.5781ZM41.4 5.07809C43.5 4.87809 44.7 5.97811 45.8 7.27811C43.1 7.07811 40.2 7.0781 37.2 7.1781C38.1 5.9781 39.5 5.17809 41.4 5.07809ZM6.70001 38.6781C5.60001 39.5781 5.60002 38.5781 5.30002 37.5781C5.20002 37.0781 5.00001 36.5781 4.70001 36.0781C6.00001 36.2781 7.40001 36.4781 8.70001 36.7781C8.10001 37.4781 7.50001 38.0781 6.70001 38.6781ZM8.5 53.0781C8.9 52.5781 10.8 53.2781 12.3 53.9781C11.1 54.7781 9.90002 55.6781 8.80002 56.4781C8.20002 55.2781 7.7 54.0781 8.5 53.0781ZM36.6 101.378C38.9 97.4781 42.6 94.6781 46.9 93.2781C47 94.3781 47.1 95.4781 47.3 96.5781C47.3 96.8781 47.4 97.0781 47.4 97.3781C44.2 99.8781 40.5 101.278 36.6 101.378ZM64.9 140.578C63.4 139.478 61.6 140.178 61.4 142.078C61.1 144.978 61.1 148.278 60.4 151.078C58.7 151.178 56.5 150.478 55.1 150.278C53.1 149.978 51 149.578 49 149.178C45.5 148.478 42.1 147.678 38.7 146.878C40.5 140.078 50.7 142.578 55.5 144.278C56.8 144.678 58.1 143.578 58.1 142.278C58 138.378 59 134.778 61.2 131.678C65.1 134.978 69.8 137.378 74.7 138.778C72.4 141.778 68.5 143.478 64.9 140.578ZM119.6 117.178C117.6 120.478 115.2 123.378 112.4 125.878C111.4 122.578 109.4 119.378 106.3 116.978C104.2 115.378 102.2 118.978 104.2 120.478C107.1 122.678 108.6 125.578 109 128.578C108.5 138.178 103.7 141.678 98.5 142.578C97.1 142.878 96.8 144.478 97.3 145.578C98.2 147.378 99 149.178 99.9 151.078C100.3 151.978 100.8 152.878 101.2 153.778C102.5 156.478 102.8 156.978 99.8 158.178C95.6 159.878 91.2 161.278 86.8 162.478C84.8 162.978 82.9 163.478 80.9 163.878C79.6 164.278 78.4 164.278 77.1 164.078C76 162.578 76.7 160.378 77.3 158.878C79.4 154.278 85.5 153.678 89.8 153.378C91.6 153.278 92.5 151.278 91.3 149.878C88.8 147.078 87.3 140.278 87.3 140.278C88 140.278 87.2 136.178 87.2 136.178C87.8 132.078 90 128.278 93.7 125.478C95.8 123.878 93.8 120.378 91.6 121.978C86.7 125.678 83.8 130.778 83.1 136.178C72.4 135.578 62.7 130.078 57.3 120.578C53.5 114.078 52.4 106.278 51.5 98.6781C51.6 98.1781 51.6 97.7781 51.3 97.3781C51.1 96.0781 51 94.6781 50.8 93.3781C49.6 83.2781 48.7 73.1781 47.8 63.0781C47.7 61.4781 46.2 60.5781 44.7 61.2781C39.8 63.8781 33.6 64.4781 28.2 64.8781C21.9 65.3781 15.7 63.7781 11.2 59.5781C19.2 53.9781 27.2 48.3781 35.2 42.7781C36.7 41.7781 36.5 39.5781 34.7 38.9781C24.7 35.7781 14.4 33.3781 4.10001 31.7781C6.00001 12.1781 32.3 10.0781 47.9 11.3781C48.3 11.4781 48.8 11.5781 49.2 11.4781C49.9 11.3781 50.4 10.9781 50.6 10.4781C50.7 10.1781 50.8 9.87809 50.9 9.57809C50.9 9.47809 50.9 9.37811 50.9 9.27811V9.1781C54 6.8781 57.6 3.77809 61.5 4.47809C65.4 5.07809 65.5 11.2781 65.5 14.1781C65.5 15.4781 66.6 16.1781 67.6 16.1781C73.8 20.5781 77.7 26.7781 80.2 33.6781C80.2 34.1781 80.3 34.6781 80.7 35.0781C81.9 38.6781 82.7 42.4781 83.3 46.2781C84.3 52.6781 84.4 59.2781 84.8 65.7781C84.9 66.7781 84.9 67.7781 85 68.6781C84.9 69.1781 84.9 69.7781 85.1 70.2781C85.4 73.5781 85.6 76.8781 85.9 80.1781C85 81.0781 85.2 82.4781 86.1 83.2781C86.1 84.1781 86.2 85.0781 86.2 85.9781C86.2 86.4781 86.4 86.9781 86.7 87.2781C87 87.7781 87.5 88.0781 88.3 88.0781C96.5 88.1781 104.4 86.4781 111.9 83.0781C115.8 81.2781 119.3 78.8781 122.6 76.1781C124.2 74.8781 125.6 73.4781 126.9 71.9781C128.1 70.6781 129.5 68.0781 131.2 66.8781C130.7 83.8781 128.5 102.278 119.6 117.178Z" />
<path d="M73.0001 93.3781C71.0001 96.1781 68.8001 98.6781 66.4001 101.178C65.5001 102.178 64.5001 103.078 63.5001 103.978C63.1001 104.378 59.6001 106.878 59.6001 107.078C59.6001 100.178 65.9001 94.5781 71.3001 91.2781C73.5001 89.8781 71.5001 86.3781 69.2001 87.7781C65.1001 90.3781 61.6001 93.4781 58.8001 97.3781C56.7001 100.378 53.9001 106.778 56.0001 110.378C60.1001 117.378 74.4001 98.3781 76.5001 95.4781C78.2001 93.3781 74.6001 91.2781 73.0001 93.3781Z" />
<path d="M30.1 22.3781C29.8 22.3781 29.4 22.3781 29.1 22.3781C28 22.3781 27 23.2781 27 24.4781C27 25.5781 27.9 26.5781 29.1 26.5781C29.4 26.5781 29.8 26.5781 30.1 26.5781C31.2 26.5781 32.2 25.6781 32.2 24.4781C32.1 23.2781 31.2 22.3781 30.1 22.3781Z" />
<path d="M19.8998 21.2781C19.6998 21.2781 19.5998 21.2781 19.3998 21.2781C18.2998 21.2781 17.2998 22.1781 17.2998 23.3781C17.2998 24.4781 18.1998 25.4781 19.3998 25.4781C19.5998 25.4781 19.6998 25.4781 19.8998 25.4781C20.9998 25.4781 21.9998 24.5781 21.9998 23.3781C21.9998 22.2781 21.0998 21.2781 19.8998 21.2781Z"/>
</svg>
