<svg width="169" height="157" viewBox="0 0 169 157" xmlns="http://www.w3.org/2000/svg">
<path d="M135.751 91.6273C136.551 89.5273 137.151 87.4273 137.551 85.3273C140.951 85.9273 144.451 86.2273 147.851 85.9273C150.451 85.7273 150.451 81.6273 147.851 81.8273C144.551 82.0273 141.351 81.8273 138.051 81.2273C138.051 81.2273 138.051 81.2273 137.951 81.2273C138.151 78.8273 138.051 76.3273 137.751 73.9273C137.851 73.9273 137.951 73.9273 137.951 73.9273C142.851 73.2273 147.651 72.5273 152.551 71.8273C155.151 71.4273 154.051 67.5273 151.451 67.8273C146.651 68.5273 141.851 69.2273 137.051 69.9273C136.851 68.9273 136.551 67.9273 136.251 66.9273C141.551 61.4273 148.151 57.6273 154.551 53.4273C157.751 51.3273 160.851 49.0273 163.751 46.5273C166.051 44.5273 168.851 42.4273 168.251 39.2273C167.751 36.5273 164.551 34.8273 162.151 34.3273C158.351 33.5273 154.151 35.7273 150.751 37.1273C141.851 40.9273 133.251 45.4273 124.551 49.7273C123.051 47.9273 121.451 46.3273 119.751 44.8273C123.251 41.8273 126.751 38.8273 130.251 35.9273C132.251 34.2273 129.351 31.3273 127.351 33.0273C123.751 36.1273 120.051 39.2273 116.451 42.2273C116.451 42.2273 116.451 42.2273 116.351 42.3273C112.151 39.5273 107.451 37.6273 102.351 36.7273C104.051 33.0273 105.751 29.3273 107.551 25.7273C108.151 24.5273 110.651 23.9273 111.751 23.2273C113.351 22.2273 114.551 20.7273 115.551 19.1273C119.851 12.7273 115.951 3.92726 109.451 1.02726C102.551 -1.97274 94.951 2.72727 93.451 9.72727C92.751 13.0273 93.851 16.6273 95.851 19.2273C97.351 21.1273 94.851 24.5273 94.051 26.5273C92.951 29.0273 91.851 31.5273 90.751 33.9273C84.651 32.6273 78.551 32.5273 72.451 33.8273C70.051 29.4273 68.751 24.7273 68.651 19.6273C73.251 16.2273 77.251 11.9273 75.551 5.72728C73.851 -0.772725 65.251 -0.772737 60.351 1.02726C55.251 2.82726 49.251 7.42726 49.251 13.4273C49.251 18.3273 52.551 22.4273 57.151 22.5273C57.751 27.5273 59.151 32.3273 61.351 36.9273C57.451 39.2273 53.851 42.0273 50.651 45.1273C48.151 41.8273 45.651 38.5273 43.151 35.3273C41.551 33.2273 38.051 35.3273 39.651 37.4273C42.251 40.8273 44.751 44.1273 47.351 47.5273C47.551 47.7273 47.751 47.9273 47.951 48.0273C46.451 49.6273 45.051 51.3273 43.651 53.1273C35.151 50.0273 27.051 46.0273 19.351 41.1273C16.551 39.3273 13.151 35.9273 9.45103 36.4273C6.85103 36.8273 4.35104 38.8273 3.75104 41.5273C2.05104 48.5273 8.35103 54.6273 13.451 58.4273C16.751 60.8273 20.251 62.7273 24.151 64.1273C27.851 65.5273 31.751 66.4273 35.051 68.8273C34.751 69.4273 34.451 70.0273 34.151 70.6273C31.151 69.6273 28.051 68.6273 25.051 67.5273C22.551 66.7273 21.451 70.6273 23.951 71.5273C26.751 72.5273 29.651 73.4273 32.451 74.4273C31.651 76.3273 31.051 78.2273 30.551 80.2273C30.351 80.2273 30.251 80.1273 30.051 80.1273C24.951 80.3273 19.851 80.0273 14.851 79.4273C12.251 79.1273 12.251 83.2273 14.851 83.5273C19.751 84.1273 24.651 84.3273 29.651 84.2273C29.251 86.0273 29.051 87.9273 28.851 89.8273C23.151 92.8273 16.551 93.1273 10.351 94.6273C5.25104 95.8273 0.751033 98.1272 0.0510335 103.727C-1.24897 114.827 22.651 108.627 30.251 106.327C30.551 106.527 30.851 106.627 31.151 106.627C32.251 107.727 33.251 108.927 34.351 110.027C30.451 112.927 26.651 115.727 22.751 118.627C20.651 120.227 22.651 123.727 24.851 122.127C28.951 119.027 33.151 116.027 37.251 112.927C38.251 113.927 39.151 114.827 40.151 115.827C39.851 115.927 39.551 116.227 39.351 116.527C36.551 120.627 33.751 124.727 30.951 128.727C29.451 130.927 33.051 132.927 34.451 130.827C37.251 126.727 40.051 122.627 42.851 118.627C44.051 119.827 45.251 120.927 46.551 122.127C44.251 126.627 41.951 131.227 39.651 135.727C37.851 139.227 34.851 143.427 34.651 147.527C34.251 154.927 41.651 157.227 47.351 153.727C50.251 152.027 51.651 148.527 52.851 145.527C54.651 141.027 56.351 136.727 59.051 132.527C60.551 130.227 65.951 132.527 67.851 132.927C69.951 133.327 72.151 133.527 74.251 133.727C78.551 134.027 82.951 133.727 87.251 133.027C90.051 140.527 93.451 149.827 99.651 154.927C104.951 159.227 112.451 156.327 112.451 149.327C112.451 145.427 109.551 141.127 107.951 137.727C106.851 135.327 105.551 132.927 104.651 130.427C103.751 127.827 107.351 126.327 109.751 125.327C111.151 129.827 113.251 134.027 116.051 137.827C117.551 139.927 121.151 137.927 119.551 135.727C116.851 132.027 114.851 127.927 113.451 123.527C113.451 123.527 113.451 123.427 113.351 123.427C115.251 122.327 117.051 121.027 118.751 119.527C121.451 123.027 124.051 126.627 126.751 130.127C128.351 132.227 131.851 130.127 130.251 128.027C127.451 124.227 124.551 120.527 121.751 116.727C124.051 114.427 126.151 111.927 128.051 109.227C139.251 114.227 160.051 124.627 165.951 107.627C166.151 107.027 165.951 106.027 165.451 105.627C157.151 98.2273 145.151 97.7273 135.751 91.6273ZM130.551 105.627C130.951 104.527 131.151 103.327 131.051 102.227C130.951 101.127 130.151 100.127 128.951 100.127C127.951 100.127 126.751 101.027 126.851 102.227C126.951 103.527 126.651 104.727 125.651 105.627C125.251 106.027 125.051 106.527 125.051 106.927C121.251 112.427 116.451 116.927 110.651 120.327C105.651 123.327 99.351 124.027 100.951 131.327C101.651 134.627 103.851 137.927 105.251 141.027C106.251 143.027 107.251 145.027 108.051 147.127C109.451 150.827 106.851 153.627 103.351 152.127C100.051 150.727 98.151 145.927 96.551 143.027C94.651 139.427 92.951 135.727 91.551 131.927C92.351 131.527 93.151 131.127 94.051 130.727C95.051 130.227 95.351 128.827 94.751 127.927C94.151 126.927 92.951 126.727 91.951 127.227C91.151 127.627 90.351 128.027 89.451 128.427C89.451 128.427 89.451 128.427 89.351 128.427C89.151 128.427 88.851 128.427 88.651 128.427C80.651 130.027 72.751 129.827 64.851 127.827C63.251 127.427 61.351 126.727 59.651 127.127C58.751 126.527 57.851 125.927 56.951 125.227C56.051 124.627 54.651 125.027 54.151 125.927C53.551 126.927 53.951 128.127 54.851 128.727C55.251 129.027 55.751 129.327 56.151 129.627C54.551 131.627 53.351 134.027 52.251 136.327C50.651 139.427 49.751 142.827 48.351 146.027C47.551 147.827 46.351 149.427 44.651 150.427C41.551 152.327 38.451 150.427 39.251 146.427C40.051 142.427 43.051 138.327 44.851 134.627C46.751 130.827 48.651 127.027 50.551 123.327C50.951 122.627 50.851 121.927 50.551 121.327C50.851 120.627 50.751 119.927 50.051 119.227C44.151 113.727 38.451 108.027 32.951 102.027C32.851 101.927 32.751 101.927 32.751 101.827C32.351 101.027 32.051 100.327 31.651 99.5273C31.151 98.5273 29.751 98.2273 28.851 98.8273C27.851 99.4273 27.651 100.627 28.151 101.627C28.251 101.827 28.351 102.027 28.451 102.227C24.951 103.227 21.451 104.027 17.851 104.627C15.551 105.027 13.251 105.227 10.851 105.327C9.95104 105.427 9.05103 105.427 8.15103 105.427C4.65103 105.527 4.85104 101.027 7.35104 99.6273C10.851 97.6273 15.651 97.3273 19.551 96.6273C23.651 95.9273 27.651 94.8273 31.351 92.8273C32.051 92.4273 32.351 91.8273 32.351 91.1273C32.751 90.8273 33.051 90.3273 33.051 89.7273C33.651 82.3273 35.951 75.4273 39.551 69.0273C39.951 68.2273 39.951 67.1273 39.251 66.5273C35.351 62.9273 30.351 61.6273 25.451 59.8273C18.751 57.5273 12.151 52.8273 8.55103 46.6273C7.35103 44.6273 7.25104 41.3273 9.85104 40.3273C11.451 39.6273 15.051 42.8273 16.351 43.6273C19.151 45.5273 22.151 47.3273 25.151 48.9273C30.551 51.9273 36.151 54.4273 41.951 56.5273C41.451 57.1273 40.951 57.7273 40.351 58.3273C39.651 59.1273 39.551 60.4273 40.351 61.2273C41.051 61.9273 42.551 62.1273 43.251 61.2273C44.451 59.8273 45.651 58.4273 46.951 56.9273C47.451 56.3273 47.651 55.6273 47.451 54.9273C52.351 48.4273 58.351 43.2273 65.451 39.2273C66.451 38.6273 66.651 37.4273 66.151 36.4273C63.451 31.2273 61.851 25.8273 61.351 19.9273C61.251 18.6273 60.151 17.6273 58.751 17.9273C54.051 19.1273 52.951 13.8273 54.351 10.5273C55.351 8.22726 57.751 6.72726 59.851 5.52726C62.351 4.12726 65.351 3.22728 68.151 3.72728C73.851 4.72728 72.151 10.7273 69.351 13.6273C68.151 14.9273 65.851 15.7273 64.951 17.2273C64.051 18.7273 64.751 21.3273 64.951 22.9273C65.651 27.7273 67.151 32.2273 69.651 36.4273C69.751 36.6273 69.851 36.7273 70.051 36.9273C70.451 37.5273 71.251 37.9273 72.151 37.7273C78.551 36.1273 84.851 36.2273 91.151 37.8273C91.551 37.9273 91.851 37.9273 92.151 37.8273C92.851 37.9273 93.551 37.6273 93.951 36.8273C95.451 33.5273 96.851 30.1273 98.351 26.8273C99.151 24.9273 101.451 21.7273 100.851 19.4273C100.151 16.7273 97.951 15.1273 97.551 12.2273C96.951 7.62727 100.851 4.12726 105.151 3.92726C109.151 3.62726 112.051 7.12727 113.151 10.6273C114.451 15.0273 111.251 19.2273 107.251 20.6273C104.451 21.6273 104.151 23.4273 102.751 26.1273C100.851 29.9273 99.151 33.8273 97.451 37.8273C96.451 40.1273 99.551 42.1273 100.851 40.2273C109.351 41.4273 116.951 45.9273 122.151 52.7273C122.251 53.1273 122.351 53.6273 122.751 53.9273C123.751 55.1273 124.851 56.3273 125.851 57.5273C126.551 58.3273 128.051 58.3273 128.751 57.5273C129.551 56.7273 129.451 55.4273 128.751 54.6273C128.251 54.0273 127.651 53.4273 127.151 52.8273C132.451 50.1273 137.851 47.4273 143.151 44.8273C146.751 43.1273 161.551 34.4273 164.351 39.9273C155.351 50.0273 141.851 54.5273 132.751 64.6273C132.251 65.0273 131.951 65.7273 132.251 66.6273C134.751 74.4273 134.951 83.4273 131.551 91.0273C131.051 92.1273 131.351 93.1273 132.251 93.8273C141.151 100.427 153.251 100.727 162.051 107.427C156.751 119.027 138.951 109.427 130.551 105.627Z" />
<path d="M105.851 14.6273C106.951 14.6273 107.951 13.7273 107.951 12.5273C107.951 12.3273 107.951 12.1272 107.951 11.9272C107.951 10.8272 107.051 9.82727 105.851 9.82727C104.751 9.82727 103.751 10.7272 103.751 11.9272C103.751 12.1272 103.751 12.3273 103.751 12.5273C103.751 13.7273 104.751 14.6273 105.851 14.6273Z" />
<path d="M64.6512 10.8273C64.6512 9.7273 63.7512 8.72729 62.5512 8.72729C61.3512 8.72729 60.4512 9.6273 60.4512 10.8273C60.4512 11.0273 60.4512 11.2273 60.4512 11.4273C60.4512 12.5273 61.3512 13.5273 62.5512 13.5273C63.7512 13.5273 64.6512 12.6273 64.6512 11.4273C64.6512 11.2273 64.6512 11.0273 64.6512 10.8273Z" />
<path d="M110.751 63.7273C99.851 62.9273 88.751 63.9273 77.951 65.3273C69.751 66.3273 59.951 67.0273 52.651 71.3273C45.751 75.4273 46.151 84.3273 46.051 91.3273C45.951 98.2273 47.651 105.027 53.651 108.927C53.751 109.027 53.951 109.127 54.151 109.227C54.351 109.327 54.551 109.427 54.751 109.427C58.451 110.927 62.151 111.127 66.151 110.927C71.951 110.627 77.751 110.327 83.551 109.927C87.151 109.727 90.651 109.427 94.151 109.127C94.751 109.427 95.551 109.327 96.151 108.927C97.751 108.827 99.351 108.627 100.851 108.527C105.451 108.127 109.951 107.727 114.051 105.327C121.951 100.627 122.851 90.0272 122.051 81.9272C121.251 74.3272 120.251 64.4273 110.751 63.7273ZM115.651 71.0273C115.751 71.1273 115.751 71.3272 115.851 71.4272C115.251 71.6272 114.751 71.9273 114.251 72.3273C113.951 72.6273 111.051 76.1273 110.851 75.7273C109.651 72.6273 108.751 70.1273 106.651 67.7273C110.151 67.6273 113.751 67.7273 115.651 71.0273ZM102.851 67.7273C101.451 70.2273 100.151 72.8273 98.751 75.3273C96.551 73.3273 94.951 70.9273 93.851 68.0273C96.851 67.8273 99.851 67.7273 102.851 67.7273ZM84.351 75.4272C82.751 73.3272 81.251 71.3273 79.651 69.2273C82.951 68.8273 86.351 68.5273 89.651 68.2273C88.051 70.7273 86.251 73.1272 84.351 75.4272ZM68.851 76.4272C67.551 74.7272 66.151 73.0273 64.851 71.3273C67.751 70.7273 70.751 70.2272 73.751 69.9272C72.051 71.9272 70.351 74.1272 68.851 76.4272ZM58.151 73.2273C58.351 73.1273 58.451 73.1273 58.651 73.0273C57.951 74.7273 57.151 76.5273 56.451 78.2273C55.851 79.7273 56.551 81.6272 55.051 79.9272C54.151 78.9272 53.451 77.8273 52.751 76.6273C54.051 75.1273 55.951 74.0273 58.151 73.2273ZM57.351 106.227C58.551 104.327 60.851 100.827 61.851 101.827C63.351 103.427 64.651 105.227 65.951 107.027C63.051 107.127 60.151 107.127 57.351 106.227ZM89.151 102.427C89.851 103.327 90.451 104.327 91.151 105.227C89.851 105.327 88.451 105.427 87.151 105.527C87.751 104.527 88.351 103.427 89.151 102.427ZM70.551 106.727C72.251 104.327 74.151 102.027 76.251 99.9272C76.851 99.3272 79.851 103.527 81.551 106.027C77.951 106.227 74.251 106.427 70.551 106.727ZM99.351 104.727C100.351 103.227 101.451 101.727 102.451 100.227C105.651 95.6273 108.451 99.0273 109.851 102.827C109.151 103.127 108.351 103.427 107.551 103.627C104.951 104.327 102.151 104.627 99.351 104.727ZM113.351 100.527C111.751 96.6273 109.251 93.1273 104.451 93.8273C102.351 94.1273 100.751 95.7272 99.551 97.4272C98.051 99.5272 96.551 101.727 95.051 103.827C93.751 101.927 92.451 100.027 91.151 98.1273C90.451 97.0273 88.851 96.7273 87.951 97.7273C86.451 99.2273 85.251 100.927 84.251 102.627C83.351 101.327 82.351 99.9273 81.451 98.6273C80.551 97.3273 79.451 95.4273 77.651 95.3273C73.751 95.1273 70.551 99.4272 68.251 102.927C66.451 100.227 63.851 96.5273 61.151 97.2273C58.051 98.0273 55.651 101.127 54.051 103.927C50.651 100.427 50.251 95.3273 50.351 90.3273C50.351 87.3273 50.451 84.3272 50.851 81.4272C52.351 83.6272 54.251 85.7273 56.851 85.0273C58.551 84.5273 59.251 82.2273 59.851 80.8273C60.751 78.8273 61.551 76.7273 62.451 74.7273C64.251 76.9273 65.951 79.2272 67.751 81.4272C68.551 82.5272 70.351 82.0273 70.951 81.0273C72.751 77.9273 74.751 75.1272 77.151 72.4272C78.951 74.8272 80.751 77.2273 82.551 79.6273C83.251 80.6273 84.851 81.1273 85.751 80.0273C87.851 77.6273 89.851 75.1273 91.651 72.5273C93.351 75.5273 95.551 78.0273 98.451 80.1273C99.351 80.7273 100.751 80.3272 101.251 79.4272C102.551 77.0272 103.851 74.6273 105.151 72.2273C106.051 73.6273 106.651 75.0273 107.051 76.7273C107.451 78.1273 108.351 79.1273 109.651 79.7273C113.551 81.4273 114.751 76.7273 117.351 75.3273C117.951 78.1273 118.051 81.1273 118.251 83.5273C118.751 89.8273 117.651 96.4273 113.351 100.527Z" />
<path d="M153.951 105.627C152.851 105.627 151.851 106.527 151.851 107.727C151.851 107.927 151.851 108.127 151.851 108.327C151.851 109.427 152.751 110.427 153.951 110.427C155.051 110.427 156.051 109.527 156.051 108.327C156.051 108.127 156.051 107.927 156.051 107.727C156.051 106.527 155.051 105.627 153.951 105.627Z" />
<path d="M157.051 43.9272C159.651 43.9272 159.651 39.8273 157.051 39.8273C154.351 39.8273 154.351 43.9272 157.051 43.9272Z" />
<path d="M12.0511 44.6273C9.45107 44.6273 9.45107 48.7273 12.0511 48.7273C14.6511 48.7273 14.6511 44.6273 12.0511 44.6273Z" />
<path d="M12.0511 100.127C9.45107 100.127 9.45107 104.227 12.0511 104.227C14.6511 104.227 14.6511 100.127 12.0511 100.127Z" />
<path d="M44.5508 143.927C43.7508 143.127 42.4508 143.127 41.6508 143.927C40.8508 144.727 40.8508 146.027 41.6508 146.827C41.8508 147.027 42.0508 147.227 42.2508 147.427C43.0508 148.227 44.3508 148.227 45.1508 147.427C45.9508 146.627 45.9508 145.327 45.1508 144.527C44.9508 144.327 44.7508 144.127 44.5508 143.927Z" />
<path d="M104.051 150.527C106.651 150.527 106.651 146.427 104.051 146.427C101.351 146.427 101.351 150.527 104.051 150.527Z" />
</svg>
