<svg width="960" height="1210" viewBox="0 0 960 1210" fill="none" xmlns="http://www.w3.org/2000/svg">
<path d="M841 771.5C841 840.627 778.962 897 702 897C625.038 897 563 840.627 563 771.5C563 702.373 625.038 646 702 646C778.962 646 841 702.373 841 771.5Z" stroke="#ffffff" stroke-width="4"/>
<path d="M927 846.5C927 937.167 845.709 1011 745 1011C644.291 1011 563 937.167 563 846.5C563 755.833 644.291 682 745 682C845.709 682 927 755.833 927 846.5Z" stroke="#ffffff" stroke-width="4"/>
<rect x="134" y="197" width="478" height="368" stroke="#ffffff" stroke-width="4"/>
<path d="M706.257 142.25L777.5 31.6923L848.743 142.25H706.257Z" stroke="#ffffff" stroke-width="4"/>
<path d="M46.2569 1169.25L117.5 1058.69L188.743 1169.25H46.2569Z" stroke="#ffffff" stroke-width="4"/>
</svg>
